<?xml version="1.0" encoding="utf-8"?>
<!-- Generator: Adobe Illustrator 16.0.0, SVG Export Plug-In . SVG Version: 6.00 Build 0)  -->
<!DOCTYPE svg PUBLIC "-//W3C//DTD SVG 1.1//EN" "http://www.w3.org/Graphics/SVG/1.1/DTD/svg11.dtd">
<svg version="1.1" id="Layer_1" xmlns="http://www.w3.org/2000/svg" xmlns:xlink="http://www.w3.org/1999/xlink" x="0px" y="0px"
	 width="612px" height="792px" viewBox="0 0 612 792" enable-background="new 0 0 612 792" xml:space="preserve">
<g>
	<rect x="226.153" y="61.073" fill="#039BE5" width="22.472" height="19.604"/>
	<rect x="47.454" y="239.772" fill="#039BE5" width="19.603" height="22.472"/>
	
		<rect x="100.222" y="367.136" transform="matrix(0.7071 -0.7071 0.7071 0.7071 -235.3239 188.6211)" fill="#039BE5" width="19.603" height="22.471"/>
	
		<rect x="100.17" y="112.323" transform="matrix(-0.7071 -0.7071 0.7071 -0.7071 100.3647 288.6896)" fill="#039BE5" width="19.603" height="22.472"/>
	<path fill="#039BE5" d="M595.385,465.089c-23.547-55.701-72.914-95.146-131.962-105.546l-7.172-1.195l-62.156,123.596
		l-62.156-123.596l-7.172,1.195c-54.626,9.563-100.765,43.987-126.105,93.115l-8.965-35.74l-5.14-1.674
		c-8.606-2.749-17.212-6.335-25.819-10.758l-4.9-2.51l-43.868,26.297l-49.845-49.845l26.297-43.868l-2.51-4.901
		c-4.423-8.606-8.009-17.332-10.758-25.819l-1.674-5.14l-49.605-12.431v-70.523l49.605-12.432l1.674-5.14
		c2.749-8.606,6.335-17.212,10.758-25.819l2.51-4.781l-26.297-43.868l49.845-49.964l43.868,26.297l4.9-2.51
		c8.606-4.422,17.332-8.008,25.819-10.758l5.14-1.673l12.431-49.605h70.523l12.431,49.605l5.14,1.673
		c8.606,2.75,17.213,6.335,25.819,10.758l4.9,2.51l43.868-26.297l40.641,40.641c-3.825-0.358-7.53-0.598-11.355-0.598
		c-33.708,0-64.069,14.822-84.987,38.13c-20.798-15.061-45.899-23.309-71.718-23.309c-67.535,0-122.4,54.865-122.4,122.4
		s54.865,122.4,122.4,122.4c33.469,0,64.786-13.507,87.855-37.414c19.125,19.604,42.912,32.632,68.851,32.632
		c63.352,0,114.392-76.859,114.392-140.449c0-47.454-29.047-88.214-70.285-105.546l1.195-2.032l-71.479-71.48l-47.692,28.688
		c-6.216-2.988-12.432-5.618-18.647-7.77L287.951,16.01H186.827L173.32,69.919c-6.216,2.271-12.431,4.781-18.647,7.77L106.98,49.001
		L35.501,120.6l28.688,47.693c-2.988,6.216-5.618,12.431-7.77,18.647L2.391,200.447V301.57l53.909,13.507
		c2.271,6.216,4.781,12.432,7.77,18.647l-28.688,47.693l71.479,71.479l47.693-28.688c6.216,2.988,12.432,5.618,18.647,7.77
		l12.79,51.279c-13.388,44.346-9.084,92.397,12.551,134.354l2.749,5.259h385.25l2.749-5.259
		C614.032,569.918,616.184,514.217,595.385,465.089z M237.389,353.806c-56.658,0-102.797-46.139-102.797-102.797
		c0-56.658,46.139-102.797,102.797-102.797c21.516,0,42.434,6.813,59.885,19.364c-0.479,0.837-0.957,1.673-1.435,2.51
		c-1.195,1.913-2.271,3.825-3.228,5.857c-1.076,2.152-2.151,4.303-3.107,6.574c-0.479,1.195-0.957,2.271-1.435,3.466
		c-0.837,2.152-1.673,4.184-2.271,6.335c-0.359,0.956-0.717,1.913-0.957,2.988c-0.956,3.108-1.793,6.335-2.51,9.563
		c-0.12,0.478-0.239,1.076-0.239,1.554c-0.598,2.869-0.956,5.738-1.315,8.606c-0.12,0.956-0.239,1.793-0.239,2.749
		c-0.359,3.466-0.479,6.933-0.479,10.399c0,31.437,12.432,66.101,32.752,93.115C292.971,341.972,266.077,353.806,237.389,353.806z
		 M488.883,228.178c0,54.387-43.748,120.846-94.788,120.846c-21.157,0-41.119-11.595-57.136-28.807l-4.184-5.021
		c-17.811-21.396-29.764-49.247-32.632-75.065c0-0.359-0.12-0.717-0.12-1.076c-0.358-3.706-0.598-7.292-0.598-10.877
		c0-2.988,0.12-5.857,0.478-8.845c0.12-0.957,0.239-1.913,0.359-2.75c0.239-1.913,0.478-3.944,0.956-5.857
		c0.239-1.076,0.358-2.151,0.598-3.228c0.358-1.793,0.837-3.466,1.315-5.259c0.358-1.076,0.598-2.271,0.956-3.347
		c0.478-1.554,1.076-3.108,1.673-4.662c1.195-3.108,2.511-6.096,3.944-8.965c0.12-0.359,0.359-0.717,0.479-1.076
		c0.956-1.912,2.032-3.705,3.228-5.498c0.239-0.479,0.598-0.957,0.837-1.435c1.195-1.793,2.391-3.586,3.705-5.259
		c17.332-23.428,44.943-38.609,76.142-38.609c4.063,0,8.247,0.359,12.312,0.837c0.837,0.12,1.674,0.239,2.51,0.358
		c3.825,0.598,7.65,1.435,11.476,2.51c0.239,0.12,0.598,0.12,0.837,0.239l1.554,0.478
		C461.032,150.005,488.883,185.864,488.883,228.178z M574.706,603.387H213.603c-17.691-37.652-19.962-80.325-6.813-119.412
		l1.673-4.422c0.359-0.957,0.717-2.032,1.076-3.108c0.479-1.314,0.837-2.63,1.435-3.944c19.962-47.334,60.961-81.401,110.327-92.397
		l73.034,145.23l73.033-145.23c49.366,10.997,90.246,45.183,110.327,92.397C595.146,514.694,594.07,562.029,574.706,603.387z"/>
	<rect x="472.507" y="495.809" fill="#039BE5" width="78.293" height="19.604"/>
</g>
<text transform="matrix(1 0 0 1 0 643.4297)" font-family="'Arial-BoldMT'" font-size="5.9766">Created by Icon Fair</text>
<text transform="matrix(1 0 0 1 0 649.4063)" font-family="'Arial-BoldMT'" font-size="5.9766">from the Noun Project</text>
</svg>
