<?xml version="1.0" encoding="utf-8"?>
<!-- Generator: Adobe Illustrator 16.0.0, SVG Export Plug-In . SVG Version: 6.00 Build 0)  -->
<!DOCTYPE svg PUBLIC "-//W3C//DTD SVG 1.1//EN" "http://www.w3.org/Graphics/SVG/1.1/DTD/svg11.dtd">
<svg version="1.1" id="Layer_1" xmlns="http://www.w3.org/2000/svg" xmlns:xlink="http://www.w3.org/1999/xlink" x="0px" y="0px"
	 width="612px" height="597.5px" viewBox="0 0 612 597.5" enable-background="new 0 0 612 597.5" xml:space="preserve">
<path fill="#98BB2B" d="M564.246,233.275c-0.318-3.819-2.326-7.24-5.521-9.382c-3.134-2.112-7.136-2.687-10.771-1.542
	c-2.729,0.863-16.549,5.741-20.575,17.289c-7.234,20.753-10.062,66.573-10.441,73.232l-0.422,2.968
	c-11.291,2.54-26.438,9.761-38.477,21.799c-12.711,12.705-23.818,25.686-32.063,35.325c-2.424,2.833-5.287,6.188-7.179,8.287
	c-2.038,0.379-4.963,0.948-9.271,1.812l-0.869,0.171c-5.938,1.181-13.097,2.613-18.746,3.556c-16.519,2.754-70,22.112-98.055,73.176
	c-2.533,4.608-4.442,9.792-5.852,15.509c-1.407-5.723-3.317-10.905-5.851-15.525c-28.06-51.061-81.537-70.417-98.061-73.171
	c-5.924-0.985-13.513-2.503-19.596-3.715c-4.315-0.869-7.24-1.438-9.284-1.818c-1.903-2.111-4.792-5.49-7.313-8.446
	c-8.115-9.479-19.223-22.46-31.928-35.165c-11.414-11.414-28.758-18.544-38.415-21.371l-0.483-3.397
	c-0.379-6.658-3.207-52.479-10.441-73.232c-4.027-11.548-17.846-16.432-20.582-17.295c-3.604-1.132-7.619-0.563-10.777,1.555
	c-3.182,2.142-5.189,5.557-5.508,9.375l-8.623,102.583c-0.171,2.026,0.159,4.088,0.949,5.955l41.016,96.713
	c1.046,2.474,2.828,4.512,5.135,5.889c38.605,22.999,96.861,60.949,105.515,73.312c7.516,10.74,5.765,29.247,4.927,38.141
	c-0.532,5.624-0.795,8.444,1.738,11.235c1.419,1.562,3.543,2.497,5.648,2.497h89.12c6.922,0,12.558-5.6,12.558-12.491
	c0-0.085,0.006-4.441,0.245-11.138c0.239,6.695,0.251,11.053,0.251,11.138c0,6.893,5.636,12.491,12.558,12.491h89.12
	c2.111,0,4.229-0.937,5.648-2.497c2.54-2.791,2.271-5.611,1.737-11.235c-0.839-8.894-2.589-27.405,4.928-38.135
	c8.695-12.424,66.939-50.366,105.515-73.342c2.307-1.377,4.082-3.401,5.135-5.869l41.022-96.727
	c0.783-1.873,1.113-3.923,0.941-5.937L564.246,233.275z M292.793,518.406c-1.579,15.802-1.934,30.488-2.013,36.192h-78.924
	c1.01-11.396,2.038-31.4-7.815-45.489c-13.752-19.64-100.124-71.609-109.438-77.18l-40.465-95.423l8.286-98.728
	c3.305,1.524,7.069,4.008,8.036,6.793c5.435,15.588,8.623,50.992,9.645,69.456c0.012,0.214,0.031,0.428,0.062,0.636l0.177,1.23
	c-4.339,1.285-7.436,3.525-9.504,5.526c-4.792,4.639-6.934,10.856-6.934,14.963c0,1.285,0.33,2.546,0.96,3.666
	c0.233,0.422,5.839,10.355,12.846,17.369c3.366,3.366,9.131,12.32,12.423,18.036l8.623,12.956c0.325,0.49,0.71,0.942,1.145,1.347
	l0.483,0.447c4.002,3.672,7.944,7.601,8.672,8.538c2.595,3.372,13.825,22.612,20.967,35.202c1.383,2.43,3.917,3.8,6.524,3.8
	c1.255,0,2.528-0.317,3.697-0.979c3.599-2.044,4.865-6.616,2.821-10.221c-0.722-1.273-17.772-31.298-22.136-36.958
	c-2.13-2.767-8.923-9.058-10.184-10.227l-7.858-11.781c-0.337-0.594-8.348-14.541-14.566-20.765
	c-3.739-3.739-7.154-8.85-8.984-11.781c0.808-2.007,3.011-5.294,8.978-5.178c4.076,0.771,23.984,7.307,35.049,18.372
	c12.295,12.295,23.188,25.025,31.267,34.468c4.633,5.422,7.803,9.1,9.571,10.844c1.139,1.126,2.601,1.854,4.18,2.081
	c1.781,0.263,4.914,0.881,11.163,2.136c6.249,1.248,14.015,2.79,20.074,3.8c14.664,2.442,62.191,19.75,87.388,65.606
	C293.307,478.639,295.143,494.918,292.793,518.406z M517.409,431.894c-9.253,5.526-95.631,57.491-109.45,77.224
	c-9.854,14.082-8.825,34.082-7.815,45.482h-78.923c-0.08-5.703-0.435-20.366-2.014-36.156c-2.352-23.508-0.508-39.792,5.789-51.248
	c25.202-45.863,72.725-63.165,87.382-65.613c5.789-0.96,13.127-2.423,19.211-3.641l0.869-0.173
	c6.254-1.247,9.399-1.873,11.187-2.136c1.567-0.239,3.023-0.961,4.156-2.081c1.774-1.744,4.938-5.428,9.706-10.998
	c7.95-9.296,18.844-22.026,31.14-34.314c12.228-12.228,27.687-17.706,34.811-18.36c7.576-0.024,8.77,5.325,8.935,6.347
	c-1.42,2.111-4.484,6.377-8.708,10.594c-6.218,6.224-14.229,20.171-14.297,20.331l-8.133,12.215
	c-1.353,1.243-8.066,7.479-10.185,10.221c-4.357,5.661-21.407,35.686-22.13,36.958c-2.045,3.604-0.776,8.177,2.82,10.221
	c1.169,0.66,2.438,0.979,3.697,0.979c2.605,0,5.146-1.37,6.523-3.8c7.143-12.589,18.365-31.83,20.961-35.202
	c0.729-0.931,4.67-4.866,8.702-8.563l0.452-0.416c0.436-0.398,0.814-0.857,1.146-1.346l8.893-13.391
	c3.023-5.288,8.795-14.241,12.154-17.607c5.931-5.937,9.927-11.83,11.347-14.045c0.294-0.44,0.545-0.912,0.74-1.408l0.508-1.279
	c0.351-0.881,0.526-1.818,0.526-2.766v-1.53c0-4.21-2.123-10.508-6.872-15.11c-1.946-1.891-4.859-3.996-8.894-5.269l0.189-1.347
	c0.03-0.208,0.049-0.422,0.062-0.636c1.021-18.464,4.211-53.868,9.646-69.456c0.974-2.791,4.737-5.275,8.036-6.793l8.286,98.722
	L517.409,431.894z M212.413,216.745c7.913,7.265,19.841,7.063,26.542-0.355v82.657c0,13.238,8.935,23.605,20.349,23.605
	c7.277,0,13.544-4.21,17.136-10.704c3.586,6.494,9.859,10.704,17.136,10.704c11.414,0,20.35-10.367,20.35-23.605V217.73
	c6.646,6.12,17.668,5.888,25.165-0.985c8.396-7.711,10.612-20.985,5.165-30.019c-0.905-1.622-22.344-39.89-30.482-52.81
	c-4.4-6.989-9.26-12.485-14.792-17.007c3.819-4.902,6.193-10.985,6.193-17.668c0-15.949-12.98-28.929-28.929-28.929
	c-15.949,0-28.929,12.974-28.929,28.929c0,6.242,2.032,11.983,5.404,16.714c-5.3,3.972-9.517,9.247-12.136,15.379l-33.238,55.184
	c-2.809,4.657-3.751,10.667-2.583,16.487C205.828,208.318,208.545,213.196,212.413,216.745z M276.238,85.3
	c7.681,0,13.936,6.249,13.936,13.936c0,4.639-2.301,8.733-5.802,11.267c-0.9,0.312-1.726,0.79-2.46,1.432
	c-1.738,0.783-3.647,1.236-5.673,1.236c-2.405,0-4.639-0.667-6.616-1.75c-0.44-0.3-0.863-0.594-1.358-0.795
	c-3.592-2.521-5.955-6.683-5.955-11.396C262.31,91.555,268.558,85.3,276.238,85.3z M220.186,194.254l33.525-55.662
	c0.202-0.331,0.373-0.679,0.52-1.041c2.056-5.049,5.992-9.094,10.912-11.616c3.421,1.426,7.167,2.228,11.095,2.228
	c3.605,0,7.02-0.74,10.208-1.952c5.612,3.831,10.275,8.752,14.639,15.692c7.938,12.595,29.866,51.75,30.208,52.35
	c1.885,3.134,0.771,8.586-2.338,11.445c-1.107,1.01-2.319,1.597-3.342,1.597c-0.373,0-1.354,0-2.104-1.236l-10.734-19.939
	c-1.635-3.036-5.142-4.602-8.477-3.696c-3.342,0.863-5.661,3.892-5.618,7.344c0,0,0.263,22.093,0.263,24.872v84.407
	c0,5.08-2.821,8.617-5.354,8.617c-2.534,0-5.355-3.538-5.355-8.617V224.01c0-2.069-0.856-4.045-2.362-5.465
	c-1.512-1.414-3.494-2.167-5.6-2.02l-0.899,0.055c-2.65,0.165-3.189,0.165-5.845,0l-0.9-0.055c-2.105-0.147-4.088,0.606-5.6,2.02
	c-1.505,1.414-2.362,3.396-2.362,5.465v75.037c0,5.08-2.821,8.617-5.355,8.617c-2.534,0-5.355-3.538-5.355-8.617V214.64
	c0-2.803-0.374-25.166-0.374-25.166c-0.055-3.378-2.362-6.298-5.636-7.136c-3.274-0.851-6.702,0.618-8.373,3.556l-11.279,19.847
	c-1.297,2.154-3.629,1.897-5.741-0.042c-1.542-1.414-2.638-3.421-3.084-5.649C219.035,197.89,219.298,195.723,220.186,194.254z
	 M99.48,242.321c4.076,3.029,16.028,3.115,17.381,3.115c2.332,0,4.523-0.563,6.426-1.646v56.175c0,8.519,8.47,14.449,16.065,14.449
	c3.372,0,8.109-1.248,11.921-3.745c3.452,2.472,7.914,3.745,11.634,3.745c7.601,0,16.065-5.936,16.065-14.449v-55.937
	c1.793,0.912,3.837,1.401,5.992,1.401c1.353,0,13.299-0.086,17.362-3.115c6.389-4.749,8.121-13.292,3.696-19.266
	c-5.759-8.311-19.786-28.439-25.582-35.9c-2.889-3.721-6.016-6.781-9.449-9.4c2.393-3.708,3.819-8.091,3.819-12.821
	c0-13.097-10.655-23.752-23.758-23.752c-13.103,0-23.758,10.655-23.758,23.752c0,4.872,1.481,9.4,4.009,13.17
	c-2.466,2.02-5,4.4-7.271,7.001c-12.736,14.572-28.011,37.534-28.416,38.165c-2.179,2.931-2.901,6.756-1.97,10.483
	C94.493,237.101,96.555,240.142,99.48,242.321z M151.072,156.169c4.835,0,8.764,3.935,8.764,8.764c0,2.84-1.383,5.343-3.482,6.946
	c-0.869,0.275-1.652,0.71-2.375,1.279c-0.912,0.324-1.878,0.532-2.901,0.532c-1.457,0-2.815-0.392-4.027-1.028
	c-0.043-0.025-0.085-0.049-0.128-0.074c-2.729-1.487-4.602-4.345-4.602-7.662C142.309,160.099,146.237,156.169,151.072,156.169z
	 M135.338,194.964c3.121-3.574,6.499-6.181,8.464-7.546c2.307,0.747,4.718,1.255,7.271,1.255c2.607,0,5.073-0.526,7.423-1.304
	c3.874,2.222,7.044,5.012,10.129,8.978c5.281,6.793,18.415,25.63,23.898,33.519c-2.05,0.245-4.78,0.453-6.444,0.539l-6.304-9.346
	c-2.772-4.1-6.053-5.618-9.773-4.479c-1.304,0.397-5.545,2.167-5.557,7.999c0,0-0.453,15.435-0.453,17.387v57.032
	c-0.337,0.214-0.808,0.416-1.071,0.428c-0.643,0-1.604-0.293-2.289-0.618v-50.196c0-11.414-11.047-12.871-15.606-7.987
	c-2.668,2.852-2.436,6.322-2.325,7.987v49.761c-0.992,0.533-2.54,1.053-3.33,1.053c-0.269-0.012-0.747-0.214-1.083-0.428v-57.039
	c0-1.964-0.055-10.037-0.067-10.691c-0.037-1.756-0.067-8.917-0.067-8.923c-0.012-3.255-2.136-6.138-5.251-7.117
	c-3.109-0.973-6.5,0.165-8.378,2.84l-8.696,12.344c-1.677-0.08-4.474-0.294-6.561-0.545
	C113.281,223.93,125.375,206.378,135.338,194.964z M376.919,216.684c4.957,4.657,11.597,6.561,17.441,5.104l-7.143,37.313
	c-0.605,3.14,0.024,6.806,1.598,9.327c2.19,3.537,5.446,5.563,8.93,5.563h6.149v25.055c0,14.125,7.217,23.605,17.956,23.605
	c6.097,0,16.322-3.066,16.322-23.605v-25.055h2.143v25.055c0,13.678,7.999,23.605,19.021,23.605c8.408,0,17.393-6.2,17.393-23.605
	v-25.055h4.896c3.513,0,6.78-2.05,8.978-5.637c1.593-2.613,2.167-6.041,1.524-9.18l-7.57-37.112
	c5.568,0.955,11.652-0.991,16.321-5.374c8.171-7.687,10.35-20.906,5.067-29.89c-0.888-1.628-21.793-39.896-29.736-52.821
	c-4.357-7.093-9.181-12.663-14.688-17.222c4.192-5.019,6.817-11.39,6.817-18.428c0-15.942-12.98-28.923-28.929-28.923
	c-15.949,0-28.931,12.975-28.931,28.923c0,6.604,2.313,12.62,6.048,17.491c-5.307,4.002-9.529,9.345-12.118,15.575l-32.437,55.19
	c-2.724,4.626-3.642,10.594-2.509,16.389C370.505,208.269,373.148,213.141,376.919,216.684z M439.397,84.4
	c7.681,0,13.936,6.249,13.936,13.929c0,7.687-6.249,13.936-13.936,13.936c-7.688,0-13.93-6.249-13.93-13.936
	C425.469,90.649,431.717,84.4,439.397,84.4z M384.893,194.187l32.713-55.662c0.194-0.336,0.36-0.673,0.502-1.034
	c2.136-5.374,6.327-9.608,11.542-12.05c3.061,1.108,6.314,1.812,9.755,1.812c3.171,0,6.169-0.636,9.021-1.585
	c5.796,3.88,10.551,8.923,15,16.163c7.742,12.601,29.139,51.757,29.468,52.357c1.866,3.182,0.766,8.696-2.295,11.585
	c-1.033,0.973-2.196,1.555-3.108,1.555c-0.313,0-1.254,0-1.958-1.188l-7.345-13.727c-1.751-3.28-5.637-4.761-9.155-3.513
	c-3.5,1.261-5.544,4.902-4.805,8.549l12.553,61.561h-7.559c-4.144,0-7.497,3.354-7.497,7.497v32.546
	c0,5.153-1.241,8.617-2.398,8.617c-2.186,0-4.026-3.954-4.026-8.617v-32.552c0-4.144-3.354-7.497-7.497-7.497h-17.137
	c-4.144,0-7.497,3.354-7.497,7.497v32.546c0,7.216-1.395,8.721-1.321,8.617c-1.604,0-2.956-3.954-2.956-8.617v-32.546
	c0-4.144-3.354-7.497-7.497-7.497H402.5l12.068-63.012c0.691-3.617-1.347-7.203-4.811-8.458c-3.471-1.254-7.326,0.184-9.113,3.415
	l-8.242,14.866c-1.23,2.081-3.287,1.763-5.216-0.055c-1.505-1.408-2.569-3.433-3.017-5.673
	C383.742,197.89,384.012,195.687,384.893,194.187z"/>
</svg>
