<?xml version="1.0" encoding="utf-8"?>
<!-- Generator: Adobe Illustrator 16.0.0, SVG Export Plug-In . SVG Version: 6.00 Build 0)  -->
<!DOCTYPE svg PUBLIC "-//W3C//DTD SVG 1.1//EN" "http://www.w3.org/Graphics/SVG/1.1/DTD/svg11.dtd">
<svg version="1.1" id="Layer_1" xmlns="http://www.w3.org/2000/svg" xmlns:xlink="http://www.w3.org/1999/xlink" x="0px" y="0px"
	 width="456.045px" height="630.286px" viewBox="74.937 0 456.045 630.286" enable-background="new 74.937 0 456.045 630.286"
	 xml:space="preserve">
<path fill="#FFFFFF" d="M495.559,561.044h-32.8v-74.255h16.138l-5.519-24.675h-44.467v-74.261h27.692l-8.233-36.449h-40.711v-74.142
	h24.056l-7.911-35.205h-36.557v-74.143h19.883l-7.072-31.556h-20.614v-20.513l-3.328-3.852c1.453-1.357,2.388-3.227,2.388-5.316
	c0-2.083-0.935-3.958-2.292-5.31h3.238l-3.441-3.851h-0.112c0.214-0.518,0.214-0.935,0.214-1.458c0-1.352-0.518-2.708-1.571-3.542
	l-3.322-16.972l-3.231,16.972c-1.036,0.833-1.667,2.19-1.667,3.542c0,0.524,0.113,0.94,0.214,1.458l-3.435,3.851h3.221
	c-1.453,1.357-2.286,3.227-2.286,5.31s0.929,3.958,2.393,5.316l-3.333,3.852h-16.358l-3.334-3.852
	c1.465-1.357,2.399-3.227,2.399-5.316c0-2.083-0.935-3.958-2.292-5.31h3.221l-3.435-3.851h-0.102
	c0.202-0.518,0.202-0.935,0.202-1.458c0-1.352-0.619-2.708-1.56-3.542l-3.339-16.972l-3.328,16.972
	c-0.946,0.833-1.565,2.19-1.565,3.542c0,0.524,0.102,0.94,0.202,1.458h-0.107l-3.435,3.851h3.34
	c-1.452,1.357-2.292,3.227-2.292,5.31s0.935,3.958,2.387,5.316l-3.435,3.852h-22.495l-3.304-3.852
	c1.452-1.357,2.387-3.227,2.387-5.316c0-2.083-0.935-3.958-2.285-5.31h3.22l-3.435-3.851c0.113-0.518,0.215-0.935,0.215-1.458
	c0-1.352-0.626-2.708-1.667-3.542l-3.334-16.972l-3.232,16.972c-1.042,0.833-1.667,2.19-1.667,3.542c0,0.524,0.107,0.94,0.209,1.458
	l-3.435,3.851h3.226c-1.458,1.357-2.291,3.227-2.291,5.31s0.935,3.958,2.393,5.316l-3.334,3.852h-20.722l-3.333-3.852
	c1.452-1.357,2.393-3.227,2.393-5.316c0-2.083-0.94-3.958-2.291-5.31h3.226l-3.423-3.857h-0.101
	c0.208-0.518,0.208-0.935,0.208-1.458c0-1.351-0.625-2.708-1.565-3.542l-3.334-16.972l-3.333,16.972
	c-0.94,0.833-1.565,2.19-1.565,3.542c0,0.524,0.106,0.941,0.208,1.458h-0.102l-3.435,3.852h3.334
	c-1.459,1.357-2.292,3.227-2.292,5.31s0.935,3.958,2.393,5.316l-3.435,3.851h-18.853l-3.321-3.845
	c1.458-1.357,2.393-3.227,2.393-5.316c0-2.083-0.935-3.958-2.292-5.31h3.227l-3.435-3.857c0.107-0.518,0.107-0.935,0.107-1.458
	c0-1.351-0.524-2.708-1.565-3.542l-3.334-16.972l-3.227,16.972c-1.036,0.833-1.661,2.19-1.661,3.542
	c0,0.524,0.102,0.941,0.209,1.458l-3.44,3.852h3.226c-1.458,1.357-2.291,3.227-2.291,5.31s0.935,3.958,2.393,5.316l-3.334,3.851
	v20.514h-21.037l-7.292,31.556h20.829v74.154h-38.015l-8.12,35.205h21.348v74.142h-38.432l-8.436,36.449h28.64v74.262h-45.819
	l-5.732,24.674h14.686v74.262H99.924l-10.728,46.551h416.875L495.559,561.044z M284.157,183.119h26.972v29.466h-26.972V183.119z
	 M275.091,266.851h45.098v49.468h-45.098V266.851z M270.406,369.007h54.372v59.575h-54.372V369.007z M342.054,565.42h-88.828v-74.25
	h88.828V565.42L342.054,565.42z"/>
</svg>
