<?xml version="1.0" encoding="utf-8"?>
<!-- Generator: Adobe Illustrator 16.0.0, SVG Export Plug-In . SVG Version: 6.00 Build 0)  -->
<!DOCTYPE svg PUBLIC "-//W3C//DTD SVG 1.1//EN" "http://www.w3.org/Graphics/SVG/1.1/DTD/svg11.dtd">
<svg version="1.1" id="Layer_1" xmlns="http://www.w3.org/2000/svg" xmlns:xlink="http://www.w3.org/1999/xlink" x="0px" y="0px"
	 width="612px" height="634.5px" viewBox="0 0 612 634.5" enable-background="new 0 0 612 634.5" xml:space="preserve">
<line fill="none" stroke="#48D1BE" stroke-width="16" x1="157.292" y1="265.618" x2="404.241" y2="265.618"/>
<line fill="none" stroke="#48D1BE" stroke-width="16" x1="157.292" y1="320.175" x2="404.241" y2="320.175"/>
<line fill="none" stroke="#48D1BE" stroke-width="16" x1="157.292" y1="164.403" x2="404.241" y2="164.403"/>
<line fill="none" stroke="#48D1BE" stroke-width="16" x1="157.292" y1="215.015" x2="404.241" y2="215.015"/>
<line fill="none" stroke="#48D1BE" stroke-width="16" x1="103.097" y1="265.618" x2="133.306" y2="265.618"/>
<line fill="none" stroke="#48D1BE" stroke-width="16" x1="103.097" y1="320.175" x2="133.306" y2="320.175"/>
<line fill="none" stroke="#48D1BE" stroke-width="16" x1="103.097" y1="164.403" x2="133.306" y2="164.403"/>
<line fill="none" stroke="#48D1BE" stroke-width="16" x1="103.097" y1="215.015" x2="133.306" y2="215.015"/>
<polyline fill="none" stroke="#48D1BE" stroke-width="16" points="476.734,376.193 476.734,58.75 35.065,58.75 35.065,622.699 
	476.734,622.699 476.734,594.171 "/>
<path fill="none" stroke="#48D1BE" stroke-width="14" d="M576.936,485.184c0,55.425-44.911,100.327-100.236,100.327
	c-55.406,0-100.318-44.902-100.318-100.327c0-55.324,44.912-100.236,100.318-100.236
	C532.023,384.945,576.936,429.857,576.936,485.184z"/>
<polyline fill="none" stroke="#48D1BE" stroke-width="14" stroke-linecap="round" points="425.753,479.15 468.082,521.479 
	533.559,456.004 "/>
</svg>
