<?xml version="1.0" encoding="utf-8"?>
<!-- Generator: Adobe Illustrator 16.0.0, SVG Export Plug-In . SVG Version: 6.00 Build 0)  -->
<!DOCTYPE svg PUBLIC "-//W3C//DTD SVG 1.1//EN" "http://www.w3.org/Graphics/SVG/1.1/DTD/svg11.dtd">
<svg version="1.1" id="Layer_1" xmlns="http://www.w3.org/2000/svg" xmlns:xlink="http://www.w3.org/1999/xlink" x="0px" y="0px"
	 width="496px" height="604px" viewBox="59.5 35.5 496 604" enable-background="new 59.5 35.5 496 604" xml:space="preserve">
<g display="none">
	<rect x="-6924.024" y="-2378.158" display="inline" width="7885.008" height="3959.956"/>
</g>
<g display="none">
	<circle display="inline" cx="306" cy="319.5" r="306"/>
	<polyline display="inline" points="484.828,502.813 484.828,119.232 159.923,119.232 159.923,552.452 435.189,552.452 
		435.189,552.452 484.828,502.813 	"/>
	<polygon display="inline" points="418.895,536.195 143.438,536.195 143.438,102.699 468.563,102.699 468.563,486.528 	"/>
	
		<line display="inline" fill="none" stroke="#DB2B42" stroke-miterlimit="10" x1="337.805" y1="269.134" x2="337.805" y2="290.927"/>
	<line display="inline" fill="none" stroke="#8AD5DD" stroke-miterlimit="10" x1="356.93" y1="218.52" x2="356.93" y2="290.927"/>
	
		<line display="inline" fill="none" stroke="#DB2B42" stroke-miterlimit="10" x1="376.055" y1="181.733" x2="376.055" y2="290.927"/>
	<line display="inline" fill="none" stroke="#8AD5DD" stroke-miterlimit="10" x1="395.17" y1="216.215" x2="395.17" y2="290.927"/>
	
		<line display="inline" fill="none" stroke="#DB2B42" stroke-miterlimit="10" x1="414.295" y1="251.377" x2="414.295" y2="290.927"/>
	<line display="inline" fill="none" stroke="#E0E0E0" stroke-miterlimit="10" x1="192.79" y1="356.163" x2="419.545" y2="356.163"/>
	<line display="inline" fill="none" stroke="#E0E0E0" stroke-miterlimit="10" x1="192.79" y1="379.925" x2="419.545" y2="379.925"/>
	<line display="inline" fill="none" stroke="#E0E0E0" stroke-miterlimit="10" x1="192.79" y1="428.704" x2="419.545" y2="428.704"/>
	<line display="inline" fill="none" stroke="#E0E0E0" stroke-miterlimit="10" x1="192.79" y1="452.467" x2="419.545" y2="452.467"/>
	<polygon display="inline" points="193.105,101.657 193.105,289.885 243.691,260.595 294.267,289.933 294.267,101.705 	"/>
	<polygon display="inline" points="418.895,536.195 418.895,486.528 468.563,486.528 	"/>
	<circle display="inline" cx="306" cy="319.5" r="306"/>
	<polyline display="inline" points="484.828,502.813 484.828,119.232 159.923,119.232 159.923,552.452 435.189,552.452 
		435.189,552.452 484.828,502.813 	"/>
	<polygon display="inline" points="418.895,536.195 143.438,536.195 143.438,102.699 468.563,102.699 468.563,486.528 	"/>
	
		<line display="inline" fill="none" stroke="#DB2B42" stroke-miterlimit="10" x1="337.805" y1="269.134" x2="337.805" y2="290.927"/>
	<line display="inline" fill="none" stroke="#8AD5DD" stroke-miterlimit="10" x1="356.93" y1="218.52" x2="356.93" y2="290.927"/>
	
		<line display="inline" fill="none" stroke="#DB2B42" stroke-miterlimit="10" x1="376.055" y1="181.733" x2="376.055" y2="290.927"/>
	<line display="inline" fill="none" stroke="#8AD5DD" stroke-miterlimit="10" x1="395.17" y1="216.215" x2="395.17" y2="290.927"/>
	
		<line display="inline" fill="none" stroke="#DB2B42" stroke-miterlimit="10" x1="414.295" y1="251.377" x2="414.295" y2="290.927"/>
	<line display="inline" fill="none" stroke="#E0E0E0" stroke-miterlimit="10" x1="192.79" y1="356.163" x2="419.545" y2="356.163"/>
	<line display="inline" fill="none" stroke="#E0E0E0" stroke-miterlimit="10" x1="192.79" y1="379.925" x2="419.545" y2="379.925"/>
	<line display="inline" fill="none" stroke="#E0E0E0" stroke-miterlimit="10" x1="192.79" y1="428.704" x2="419.545" y2="428.704"/>
	<line display="inline" fill="none" stroke="#E0E0E0" stroke-miterlimit="10" x1="192.79" y1="452.467" x2="419.545" y2="452.467"/>
	<polygon display="inline" points="193.105,101.657 193.105,289.885 243.691,260.595 294.267,289.933 294.267,101.705 	"/>
	<polygon display="inline" points="418.895,536.195 418.895,486.528 468.563,486.528 	"/>
</g>
<g display="none">
	<circle display="inline" cx="306" cy="319.5" r="306"/>
	<polygon display="inline" points="418.895,536.195 143.438,536.195 143.438,102.699 468.563,102.699 468.563,486.528 	"/>
	
		<line display="inline" fill="none" stroke="#DB2B42" stroke-miterlimit="10" x1="337.805" y1="269.134" x2="337.805" y2="290.927"/>
	<line display="inline" fill="none" stroke="#999999" stroke-miterlimit="10" x1="356.93" y1="218.52" x2="356.93" y2="290.927"/>
	
		<line display="inline" fill="none" stroke="#DB2B42" stroke-miterlimit="10" x1="376.055" y1="181.733" x2="376.055" y2="290.927"/>
	<line display="inline" fill="none" stroke="#999999" stroke-miterlimit="10" x1="395.17" y1="216.215" x2="395.17" y2="290.927"/>
	
		<line display="inline" fill="none" stroke="#DB2B42" stroke-miterlimit="10" x1="414.295" y1="251.377" x2="414.295" y2="290.927"/>
	<line display="inline" fill="none" stroke="#999999" stroke-miterlimit="10" x1="192.79" y1="356.163" x2="419.545" y2="356.163"/>
	<line display="inline" fill="none" stroke="#999999" stroke-miterlimit="10" x1="192.79" y1="379.925" x2="419.545" y2="379.925"/>
	<line display="inline" fill="none" stroke="#999999" stroke-miterlimit="10" x1="192.79" y1="428.704" x2="419.545" y2="428.704"/>
	<line display="inline" fill="none" stroke="#999999" stroke-miterlimit="10" x1="192.79" y1="452.467" x2="419.545" y2="452.467"/>
	<polygon display="inline" points="193.105,101.657 193.105,289.885 243.691,260.595 294.267,289.933 294.267,101.705 	"/>
	<polygon display="inline" points="418.895,536.195 418.895,486.528 468.563,486.528 	"/>
</g>
<g display="none">
	<g display="inline">
		<polygon points="464.996,625.5 77.055,625.5 77.055,14.973 534.945,14.973 534.945,555.541 		"/>
		<line fill="none" stroke="#DB2B42" stroke-miterlimit="10" x1="350.801" y1="249.369" x2="350.801" y2="280.064"/>
		<line fill="none" stroke="#8AD5DD" stroke-miterlimit="10" x1="377.729" y1="178.09" x2="377.729" y2="280.064"/>
		<line fill="none" stroke="#DB2B42" stroke-miterlimit="10" x1="404.656" y1="126.28" x2="404.656" y2="280.064"/>
		<line fill="none" stroke="#8AD5DD" stroke-miterlimit="10" x1="431.584" y1="174.838" x2="431.584" y2="280.064"/>
		<line fill="none" stroke="#DB2B42" stroke-miterlimit="10" x1="458.521" y1="224.363" x2="458.521" y2="280.064"/>
		<line fill="none" stroke="#E0E0E0" stroke-miterlimit="10" x1="146.564" y1="371.941" x2="465.914" y2="371.941"/>
		<line fill="none" stroke="#E0E0E0" stroke-miterlimit="10" x1="146.564" y1="405.409" x2="465.914" y2="405.409"/>
		<line fill="none" stroke="#E0E0E0" stroke-miterlimit="10" x1="146.564" y1="474.106" x2="465.914" y2="474.106"/>
		<line fill="none" stroke="#E0E0E0" stroke-miterlimit="10" x1="146.564" y1="507.575" x2="465.914" y2="507.575"/>
		<polygon points="147.004,13.5 147.004,278.592 218.245,237.339 289.485,278.659 289.485,13.567 		"/>
		<polygon points="464.996,625.5 464.996,555.541 534.945,555.541 		"/>
		<polygon points="464.996,625.5 77.055,625.5 77.055,14.973 534.945,14.973 534.945,555.541 		"/>
		<line fill="none" stroke="#DB2B42" stroke-miterlimit="10" x1="350.801" y1="249.369" x2="350.801" y2="280.064"/>
		<line fill="none" stroke="#8AD5DD" stroke-miterlimit="10" x1="377.729" y1="178.09" x2="377.729" y2="280.064"/>
		<line fill="none" stroke="#DB2B42" stroke-miterlimit="10" x1="404.656" y1="126.28" x2="404.656" y2="280.064"/>
		<line fill="none" stroke="#8AD5DD" stroke-miterlimit="10" x1="431.584" y1="174.838" x2="431.584" y2="280.064"/>
		<line fill="none" stroke="#DB2B42" stroke-miterlimit="10" x1="458.521" y1="224.363" x2="458.521" y2="280.064"/>
		<line fill="none" stroke="#E0E0E0" stroke-miterlimit="10" x1="146.564" y1="371.941" x2="465.914" y2="371.941"/>
		<line fill="none" stroke="#E0E0E0" stroke-miterlimit="10" x1="146.564" y1="405.409" x2="465.914" y2="405.409"/>
		<line fill="none" stroke="#E0E0E0" stroke-miterlimit="10" x1="146.564" y1="474.106" x2="465.914" y2="474.106"/>
		<line fill="none" stroke="#E0E0E0" stroke-miterlimit="10" x1="146.564" y1="507.575" x2="465.914" y2="507.575"/>
		<polygon points="147.004,13.5 147.004,278.592 218.245,237.339 289.485,278.659 289.485,13.567 		"/>
		<polygon points="464.996,625.5 464.996,555.541 534.945,555.541 		"/>
	</g>
</g>
<g>
	<path fill="#FF9800" d="M148.181,44.5h-1.176l0,0H76.5v581h388.878l70.122-70.122V44.5H148.181z M89.888,57.888h57.117v220.704
		l71.241-41.253l71.24,41.32V57.888h232.627v486.13h-68.095v68.095H89.888V57.888z M514.539,557.405l-47.124,47.124v-47.124H514.539
		z"/>
	<rect x="344.097" y="249.369" fill="#FF9800" width="13.388" height="30.686"/>
	<rect x="371.025" y="178.09" fill="#FF9800" width="13.387" height="101.965"/>
	<rect x="397.963" y="126.28" fill="#FF9800" width="13.387" height="153.774"/>
	<rect x="424.891" y="174.838" fill="#FF9800" width="13.388" height="105.216"/>
	<rect x="451.828" y="224.363" fill="#FF9800" width="13.388" height="55.692"/>
	<rect x="146.564" y="355.256" fill="#FF9800" width="319.35" height="13.388"/>
	<rect x="146.564" y="398.716" fill="#FF9800" width="319.35" height="13.388"/>
	<rect x="146.564" y="457.413" fill="#FF9800" width="319.35" height="13.387"/>
	<rect x="146.564" y="500.872" fill="#FF9800" width="319.35" height="13.388"/>
</g>
<g display="none">
	<circle display="inline" cx="306" cy="319.5" r="306"/>
	<polygon display="inline" points="83.672,20.672 530.843,20.672 530.843,549.832 454.018,620.843 83.672,620.843 	"/>
	<polygon display="inline" points="462.289,550.492 462.586,592.987 109.061,592.987 109.061,45.974 502.987,45.974 
		502.987,550.492 	"/>
	<path display="inline" d="M522.112,26.888v522.944l-62.28,62.28H89.888V26.888H522.112 M535.5,13.5h-459v612h388.878l70.122-70.122
		V13.5L535.5,13.5z"/>
	
		<line display="inline" fill="none" stroke="#000000" stroke-width="1.4" stroke-miterlimit="10" x1="350.801" y1="249.369" x2="350.801" y2="280.064"/>
	
		<line display="inline" fill="none" stroke="#000000" stroke-width="1.4" stroke-miterlimit="10" x1="377.729" y1="178.09" x2="377.729" y2="280.064"/>
	
		<line display="inline" fill="none" stroke="#000000" stroke-width="1.4" stroke-miterlimit="10" x1="404.656" y1="126.28" x2="404.656" y2="280.064"/>
	
		<line display="inline" fill="none" stroke="#000000" stroke-width="1.4" stroke-miterlimit="10" x1="431.584" y1="174.838" x2="431.584" y2="280.064"/>
	
		<line display="inline" fill="none" stroke="#000000" stroke-width="1.4" stroke-miterlimit="10" x1="458.521" y1="224.363" x2="458.521" y2="280.064"/>
	
		<line display="inline" fill="none" stroke="#000000" stroke-width="1.4" stroke-miterlimit="10" x1="146.564" y1="371.941" x2="465.914" y2="371.941"/>
	
		<line display="inline" fill="none" stroke="#000000" stroke-width="1.4" stroke-miterlimit="10" x1="146.564" y1="405.409" x2="465.914" y2="405.409"/>
	
		<line display="inline" fill="none" stroke="#000000" stroke-width="1.4" stroke-miterlimit="10" x1="146.564" y1="474.106" x2="465.914" y2="474.106"/>
	
		<line display="inline" fill="none" stroke="#000000" stroke-width="1.4" stroke-miterlimit="10" x1="146.564" y1="507.575" x2="465.914" y2="507.575"/>
	<polygon display="inline" points="147.004,13.5 147.004,278.592 218.245,237.339 289.485,278.659 289.485,13.567 	"/>
	
		<line display="inline" fill="none" stroke="#000000" stroke-width="1.4" stroke-miterlimit="10" x1="350.801" y1="249.369" x2="350.801" y2="280.064"/>
	
		<line display="inline" fill="none" stroke="#FFFFFF" stroke-width="1.4" stroke-miterlimit="10" x1="377.729" y1="178.09" x2="377.729" y2="280.064"/>
	
		<line display="inline" fill="none" stroke="#000000" stroke-width="1.4" stroke-miterlimit="10" x1="404.656" y1="126.28" x2="404.656" y2="280.064"/>
	
		<line display="inline" fill="none" stroke="#FFFFFF" stroke-width="1.4" stroke-miterlimit="10" x1="431.584" y1="174.838" x2="431.584" y2="280.064"/>
	
		<line display="inline" fill="none" stroke="#000000" stroke-width="1.4" stroke-miterlimit="10" x1="458.521" y1="224.363" x2="458.521" y2="280.064"/>
	
		<line display="inline" fill="none" stroke="#000000" stroke-width="1.4" stroke-miterlimit="10" x1="146.564" y1="371.941" x2="465.914" y2="371.941"/>
	
		<line display="inline" fill="none" stroke="#000000" stroke-width="1.4" stroke-miterlimit="10" x1="146.564" y1="405.409" x2="465.914" y2="405.409"/>
	
		<line display="inline" fill="none" stroke="#000000" stroke-width="1.4" stroke-miterlimit="10" x1="146.564" y1="474.106" x2="465.914" y2="474.106"/>
	
		<line display="inline" fill="none" stroke="#000000" stroke-width="1.4" stroke-miterlimit="10" x1="146.564" y1="507.575" x2="465.914" y2="507.575"/>
	<polygon display="inline" points="147.004,13.5 147.004,278.592 218.245,237.339 289.485,278.659 289.485,13.567 	"/>
</g>
</svg>
