<?xml version="1.0" encoding="utf-8"?>
<!-- Generator: Adobe Illustrator 16.0.0, SVG Export Plug-In . SVG Version: 6.00 Build 0)  -->
<!DOCTYPE svg PUBLIC "-//W3C//DTD SVG 1.1//EN" "http://www.w3.org/Graphics/SVG/1.1/DTD/svg11.dtd">
<svg version="1.1" id="Layer_1" xmlns="http://www.w3.org/2000/svg" xmlns:xlink="http://www.w3.org/1999/xlink" x="0px" y="0px"
	 width="612px" height="617.5px" viewBox="0 0 612 617.5" enable-background="new 0 0 612 617.5" xml:space="preserve">
<path fill="#6AC4F0" stroke="#6AC4F0" stroke-width="8" stroke-miterlimit="10" d="M307.885,608.743
	c-0.954,0-1.909-0.146-2.833-0.446L23.623,516.949c-3.788-1.229-6.346-4.749-6.346-8.732V303.729c0-3.965,2.546-7.484,6.316-8.721
	l224.237-73.667c4.81-1.585,10.006,1.041,11.591,5.857c1.579,4.816-1.041,10.006-5.857,11.591L35.637,310.375v191.171l272.248,88.36
	l272.242-88.36V310.375L366.82,240.301c-4.816-1.585-7.441-6.769-5.856-11.591c1.579-4.811,6.781-7.417,11.585-5.857l219.629,72.155
	c3.771,1.242,6.315,4.755,6.315,8.721v204.488c0,3.979-2.564,7.503-6.347,8.732l-281.429,91.342
	C309.794,608.591,308.84,608.743,307.885,608.743z"/>
<path fill="#6AC4F0" d="M307.885,608.743c-5.073,0-9.18-4.112-9.18-9.181v-204.48c0-5.066,4.106-9.18,9.18-9.18
	c5.067,0,9.181,4.113,9.181,9.18v204.48C317.064,604.631,312.952,608.743,307.885,608.743z"/>
<path fill="#6AC4F0" d="M409.354,453.124c-2.552,0-4.933-1.609-5.796-4.161c-1.083-3.195,0.638-6.671,3.839-7.761l100.264-33.953
	c3.188-1.09,6.671,0.636,7.76,3.837c1.084,3.194-0.636,6.677-3.837,7.76L411.319,452.8
	C410.67,453.021,410.003,453.124,409.354,453.124z"/>
<path fill="#6AC4F0" d="M409.354,494.6c-2.552,0-4.933-1.608-5.796-4.155c-1.083-3.2,0.638-6.678,3.831-7.767l100.266-33.973
	c3.207-1.077,6.677,0.637,7.766,3.831c1.084,3.201-0.636,6.678-3.831,7.767l-100.264,33.974
	C410.67,494.501,410.003,494.6,409.354,494.6z"/>
<path fill="#6AC4F0" stroke="#6AC4F0" stroke-width="8" stroke-miterlimit="10" d="M307.885,404.262
	c-0.954,0-1.909-0.146-2.833-0.445L23.623,312.462c-4.822-1.565-7.466-6.744-5.899-11.567c1.566-4.829,6.75-7.46,11.567-5.899
	l278.594,90.429l278.589-90.429c4.812-1.561,10,1.077,11.566,5.899c1.567,4.823-1.077,10-5.899,11.567L310.719,403.81
	C309.794,404.109,308.84,404.262,307.885,404.262z"/>
<path fill="#6AC4F0" d="M310.657,316.13l-6.873-7.766c-3.966-4.474-97.118-110.472-97.118-179.035
	c0-68.679,37.901-108.073,103.991-108.073c66.09,0,103.991,39.395,103.991,108.074c0,68.556-93.152,174.561-97.118,179.035
	L310.657,316.13z M310.657,39.623c-55.221,0-85.631,31.861-85.631,89.713c0,51.628,64.187,133.03,85.631,158.783
	c21.438-25.759,85.638-107.198,85.638-158.783C396.288,71.483,365.878,39.623,310.657,39.623z"/>
<path fill="#6AC4F0" d="M310.657,188.691c-31.334,0-56.824-25.49-56.824-56.818s25.49-56.812,56.824-56.812
	c31.328,0,56.813,25.49,56.813,56.812C367.47,163.201,341.985,188.691,310.657,188.691z M310.657,87.301
	c-24.584,0-44.584,19.994-44.584,44.572s20,44.578,44.584,44.578c24.578,0,44.571-20,44.571-44.578S335.229,87.301,310.657,87.301z"
	/>
</svg>
