<?xml version="1.0" encoding="utf-8"?>
<!-- Generator: Adobe Illustrator 16.0.0, SVG Export Plug-In . SVG Version: 6.00 Build 0)  -->
<!DOCTYPE svg PUBLIC "-//W3C//DTD SVG 1.1//EN" "http://www.w3.org/Graphics/SVG/1.1/DTD/svg11.dtd">
<svg version="1.1" id="Layer_1" xmlns="http://www.w3.org/2000/svg" xmlns:xlink="http://www.w3.org/1999/xlink" x="0px" y="0px"
	 width="463px" height="563px" viewBox="69.14 60.445 463 563" enable-background="new 69.14 60.445 463 563" xml:space="preserve">
<g>
	<path fill="#FFFFFF" d="M297.634,78.659c-52.581,0-96.126,40.681-103.805,93.774c-0.792,5.471-1.196,11.084-1.196,16.769
		c0,2.328,0.101,4.619,0.22,6.893c0.185,3.34,0.5,6.631,0.977,9.888c0.083,0.994,0.16,1.977,0.25,2.964
		c6.625,74.928,50.45,132.825,103.555,132.825c53.11,0,96.941-57.891,103.561-132.825c0.102-0.988,0.179-1.97,0.262-2.964
		c0.471-3.256,0.786-6.548,0.977-9.888c0.125-2.274,0.221-4.566,0.221-6.893c0-5.685-0.399-11.298-1.196-16.769
		C393.766,119.34,350.209,78.659,297.634,78.659z M388.497,209.793c-6.019,65.445-44.39,115.907-90.863,115.907
		c-46.468,0-84.839-50.462-90.863-115.907c4.083,1.018,9.102,2.995,14.561,6.81c0,0-10.37-61.587,11.536-70.219
		c0,0,30.217,14.674,64.767,15.62c34.55-0.946,64.772-15.62,64.772-15.62c21.906,8.638,11.524,70.219,11.524,70.219
		C379.396,212.788,384.407,210.817,388.497,209.793z"/>
	<path fill="#FFFFFF" d="M179.87,541.585c-0.042-0.715-0.107-1.429-0.107-2.149c0-10.113,3.94-19.626,11.096-26.787l22.871-22.871
		c7.155-7.144,16.655-11.072,26.77-11.072c10.113,0,19.614,3.929,26.787,11.09l13.216,13.216l47.509-47.51
		c7.149-7.138,16.662-11.078,26.782-11.078c10.107,0,19.632,3.94,26.77,11.09l22.864,22.859c14.764,14.769,14.764,38.8,0,53.569
		l-10.257,10.256c64.809-0.815,113.973-8.244,113.973-76.445c0-70.184-52.004-128.206-119.598-137.605
		c-0.232-0.042-0.488-0.048-0.715-0.095c-1.94-0.25-3.881-0.477-5.846-0.655c-0.012,0.191-0.083,0.393-0.083,0.589
		c-0.018,0.572-0.125,1.131-0.19,1.714c-0.352,3.256-1.327,6.411-2.846,9.459c-10.203,25.692-43.247,74.404-62.683,102.049
		l-4.019-57.444c5.686-2.899,10.572-7.732,13.698-13.322c2.262-4.024,3.631-8.411,3.631-12.9c0,0-14.513,6.429-29.323,6.429
		c-0.846,0-1.69-0.006-2.536-0.054c-0.845,0.048-1.69,0.054-2.536,0.054c-14.811,0-29.323-6.429-29.323-6.429
		c0,4.489,1.381,8.876,3.638,12.9c3.125,5.59,8.03,10.412,13.703,13.322l-4.013,57.444c-19.447-27.65-52.479-76.356-62.688-102.049
		c-1.519-3.048-2.488-6.203-2.852-9.459c-0.071-0.583-0.167-1.143-0.19-1.714c-0.006-0.196-0.071-0.398-0.071-0.589
		c-1.965,0.179-3.905,0.405-5.846,0.655c-0.244,0.047-0.5,0.053-0.727,0.095c-67.588,9.399-119.586,67.421-119.586,137.605
		C87.143,526.268,125.86,538.924,179.87,541.585z"/>
	<path fill="#FFFFFF" d="M363.353,473.717c-2.363-2.363-5.465-3.548-8.56-3.548c-3.107,0-6.209,1.179-8.572,3.548l-65.725,65.707
		l-31.425-31.419c-2.369-2.357-5.471-3.548-8.572-3.548s-6.203,1.185-8.566,3.548l-22.858,22.858
		c-4.732,4.732-4.732,12.412,0,17.139l40.003,40.009l22.853,22.853c2.363,2.369,5.471,3.548,8.572,3.548s6.202-1.179,8.572-3.554
		l22.853-22.853l74.284-74.285c4.739-4.738,4.739-12.412,0-17.145L363.353,473.717z"/>
</g>
</svg>
