<?xml version="1.0" encoding="UTF-8"?>
<svg width="82px" height="82px" viewBox="0 0 82 82" version="1.1" xmlns="http://www.w3.org/2000/svg" xmlns:xlink="http://www.w3.org/1999/xlink">
    <!-- Generator: Sketch 42 (36781) - http://www.bohemiancoding.com/sketch -->
    <title>ic-environment Health and Safety_grey</title>
    <desc>Created with Sketch.</desc>
    <defs></defs>
    <g id="Page-1" stroke="none" stroke-width="1" fill="none" fill-rule="evenodd" opacity="0.15">
        <g id="ic-environment-Health-and-Safety_grey" transform="translate(1.000000, 1.000000)" stroke="#000000" fill-rule="nonzero" fill="#000000">
            <path d="M2.66671875,40 C2.66671875,19.4146875 19.4132813,2.66671875 40,2.66671875 C51.5559375,2.66671875 62.369375,8.108125 69.409375,17.3334375 L61.3334375,17.3334375 C60.5960938,17.3334375 60.0001563,17.9307813 60.0001563,18.6667188 C60.0001563,19.4026563 60.5960938,20 61.3334375,20 L72,20 C72.04125,20 72.0773438,19.98 72.1173438,19.9759375 C72.2053125,19.9692188 72.290625,19.9492188 72.3759375,19.9239063 C72.4665625,19.8971875 72.5465625,19.8653125 72.6279687,19.8225 C72.6626562,19.8039063 72.7026562,19.8010938 72.7373437,19.7771875 C72.7746875,19.753125 72.7946875,19.7145313 72.8279687,19.6865625 C72.9,19.6292188 72.9626562,19.5665625 73.02,19.4959375 C73.0732812,19.4292188 73.12,19.3626563 73.15875,19.2892188 C73.19875,19.2145313 73.229375,19.1398438 73.2534375,19.0585938 C73.2814062,18.970625 73.3001562,18.8853125 73.3067187,18.791875 C73.3120312,18.7492188 73.3334375,18.7104688 73.3334375,18.6665625 L73.3334375,8 C73.3334375,7.2640625 72.7375,6.66671875 72.0001562,6.66671875 C71.2628125,6.66671875 70.666875,7.2640625 70.666875,8 L70.666875,14.6426562 C63.1185938,5.4159375 51.9332813,0 40,0 C17.9440625,0 0,17.9440625 0,40 C0,44.2440625 0.66,48.4185938 1.96140625,52.4079688 C2.14546875,52.9720313 2.66671875,53.329375 3.229375,53.329375 C3.3653125,53.329375 3.5053125,53.3067188 3.64265625,53.2626562 C4.34265625,53.0332813 4.7253125,52.28125 4.49734375,51.5814063 C3.28265625,47.8585938 2.66671875,43.9626563 2.66671875,40 Z" id="Shape"></path>
            <path d="M77.9626562,27.3640625 C77.730625,26.6654687 76.9785937,26.2867187 76.2746875,26.5214062 C75.5773437,26.7534375 75.19875,27.508125 75.430625,28.2067187 C76.6932812,31.9960937 77.3332812,35.9640625 77.3332812,40 C77.3332812,60.5853125 60.5865625,77.3332812 40,77.3332812 C28.4467187,77.3332812 17.6332812,71.8932812 10.5920312,62.6665625 L18.6667187,62.6665625 C19.4026562,62.6665625 20,62.0692187 20,61.3332812 C20,60.5973437 19.4026562,60 18.6667187,60 L8,60 C7.95859375,60 7.9253125,60.02 7.8853125,60.0240625 C7.7946875,60.0307812 7.70796875,60.0507812 7.62,60.0773437 C7.53328125,60.1026562 7.45328125,60.1346875 7.3746875,60.1759375 C7.33875,60.1959375 7.29875,60.1985937 7.26265625,60.2226562 C7.2253125,60.2467187 7.2053125,60.2853125 7.170625,60.3132812 C7.1,60.371875 7.03859375,60.4332812 6.98,60.5039062 C6.92671875,60.570625 6.88140625,60.6371875 6.84140625,60.711875 C6.80140625,60.7851562 6.77203125,60.8598437 6.74671875,60.94125 C6.71875,61.0292187 6.70140625,61.1145312 6.69203125,61.2065625 C6.68796875,61.250625 6.66671875,61.2879687 6.66671875,61.3332812 L6.66671875,72 C6.66671875,72.7359375 7.2640625,73.3332812 8,73.3332812 C8.7359375,73.3332812 9.33328125,72.7359375 9.33328125,72 L9.33328125,65.3559375 C16.8840625,74.5853125 28.0679687,80 40,80 C62.0559375,80 80,62.0559375 80,40 C80,35.6773437 79.3132812,31.4253125 77.9626562,27.3640625 Z" id="Shape"></path>
            <path d="M44.1040625,52.5214062 C44.1134375,52.5428125 44.1320313,52.5573437 44.1414063,52.57875 C44.2054688,52.709375 44.27875,52.83875 44.388125,52.948125 C44.4895313,53.0495312 44.6095313,53.1134375 44.7307813,53.1760937 C44.7614063,53.1920312 44.7840625,53.21875 44.8160938,53.2320312 C44.9801563,53.3014062 45.1546875,53.33875 45.3307813,53.33875 C45.3348438,53.33875 45.3375,53.3360937 45.3414063,53.3360937 L51.94,53.3360937 L52.2214063,53.3401562 C53.389375,53.3401562 59.4228125,53.128125 63.6054688,48.9454687 C68.2334375,44.31875 68.006875,37.566875 67.9960938,37.3360937 L67.9960938,30.669375 C67.9960938,29.9334375 67.4001563,29.3360937 66.6628125,29.3360937 L60.0521875,29.3375 L59.7707813,29.3334375 C58.6028125,29.3334375 52.569375,29.5454687 48.3867188,33.7267187 C43.75875,38.3546875 43.989375,45.108125 44,45.3360937 L44,51.9920312 C43.9985938,52.1720312 44.0332813,52.3520312 44.1040625,52.5214062 Z M50.2720313,35.6120313 C53.7107813,32.1734375 58.7879688,32 59.7707813,32 L65.3295313,32.0026563 L65.3307813,37.3920313 C65.3334375,37.450625 65.529375,43.2520313 61.7201563,47.06 C58.2814063,50.5 53.2042188,50.6732813 52.2214063,50.6732813 L48.5507813,50.670625 L62.2760938,36.9453125 C62.7975,36.4253125 62.7975,35.58125 62.2760938,35.06 C61.7548438,34.54 60.9120313,34.54 60.3907813,35.06 L46.6667188,48.7840625 L46.6653125,45.2826562 C46.6626563,45.2240625 46.4867188,39.3973438 50.2720313,35.6120313 Z" id="Shape"></path>
            <path d="M36.9373437,23.050625 C32.8679687,18.98 27.2067187,18.6639062 25.5679687,18.6639062 L18.670625,18.6665625 C17.9346875,18.6665625 17.3373437,19.2639062 17.3373437,19.9998437 L17.33875,26.6051562 C17.3267187,26.8892187 17.1001562,33.6425 21.7240625,38.2692187 C25.9107812,42.4571875 31.9440625,42.6692187 33.1120312,42.6692187 L38.6667187,42.6665625 L38.6667187,68 C38.6667187,68.7359375 39.2640625,69.3332812 40,69.3332812 C40.7359375,69.3332812 41.3332812,68.7359375 41.3332812,68 L41.3332812,41.3532812 C41.3332812,41.3453125 41.3373437,41.34 41.3373437,41.3332812 L41.3373437,41.3320312 L41.3373437,41.31875 L41.3359375,34.7134375 C41.3479687,34.4279687 41.56,27.6759375 36.9373437,23.050625 Z M38.670625,34.66 L38.670625,38.1053125 L24.9465625,24.38125 C24.4251562,23.86 23.58125,23.86 23.06125,24.38125 C22.54,24.90125 22.54,25.7453125 23.06125,26.2665625 L36.7959375,40.00125 L33.111875,40.0026562 C32.1292187,40.0026562 27.0532812,39.829375 23.6104687,36.3840625 C19.8278125,32.6 19.9998437,26.7720312 20.00375,26.66 L20.00375,21.3332812 L25.5678125,21.330625 C26.5504687,21.330625 31.6198437,21.5039062 35.0504687,24.9359375 C38.8346875,28.7226562 38.6732812,34.5520312 38.670625,34.66 Z" id="Shape"></path>
        </g>
    </g>
</svg>