<?xml version="1.0" encoding="utf-8"?>
<!-- Generator: Adobe Illustrator 16.0.0, SVG Export Plug-In . SVG Version: 6.00 Build 0)  -->
<!DOCTYPE svg PUBLIC "-//W3C//DTD SVG 1.1//EN" "http://www.w3.org/Graphics/SVG/1.1/DTD/svg11.dtd">
<svg version="1.1" id="Layer_1" xmlns="http://www.w3.org/2000/svg" xmlns:xlink="http://www.w3.org/1999/xlink" x="0px" y="0px"
	 width="595.279px" height="841.891px" viewBox="0 0 595.279 841.891" enable-background="new 0 0 595.279 841.891"
	 xml:space="preserve">
<path fill="#FFFFFF" d="M403.427,545.627H297.64H191.853c-40.176,89.637-80.601,143.194-80.601,143.194h83.768
	c0-56.677,45.949-102.614,102.62-102.614s102.626,45.938,102.626,102.614h83.756C484.028,688.821,443.603,635.264,403.427,545.627z"
	/>
<path fill="#FFFFFF" d="M327.047,255.528h9.071c2.905,0,5.263-2.357,5.263-5.262v-30.918c0-2.905-2.357-5.263-5.263-5.263h-11.388
	c-0.214-7.471-0.345-15.001-0.345-22.585h-17.65l-5.262-34.151c0.006-2.369-1.477-4.28-3.834-4.28s-3.839,1.911-3.839,4.28
	l-5.263,34.151h-17.65c0,7.584-0.125,15.114-0.345,22.585h-11.388c-2.905,0-5.263,2.357-5.263,5.263v30.918
	c0,2.899,2.357,5.262,5.263,5.262h9.072c-8.597,104.65-36.949,196.877-67.249,269.049h52.914l25.657-84.423h18.09h18.091
	l25.656,84.423h52.921C363.995,452.405,335.649,360.179,327.047,255.528z"/>
</svg>
