<?xml version="1.0" encoding="utf-8"?>
<!-- Generator: Adobe Illustrator 16.0.0, SVG Export Plug-In . SVG Version: 6.00 Build 0)  -->
<!DOCTYPE svg PUBLIC "-//W3C//DTD SVG 1.1//EN" "http://www.w3.org/Graphics/SVG/1.1/DTD/svg11.dtd">
<svg version="1.1" id="Layer_1" xmlns="http://www.w3.org/2000/svg" xmlns:xlink="http://www.w3.org/1999/xlink" x="0px" y="0px"
	 width="512px" height="512px" viewBox="0 0 512 512" enable-background="new 0 0 512 512" xml:space="preserve">
<g id="XMLID_834_">
	<path id="XMLID_835_" fill="#999999" d="M134.942,272.691h56.124v231.051c0,4.562,3.696,8.258,8.258,8.258h95.159
		c4.562,0,8.258-3.696,8.258-8.258V273.779h64.519c4.195,0,7.725-3.147,8.203-7.314l9.8-85.062c0.269-2.34-0.473-4.684-2.038-6.439
		c-1.567-1.758-3.811-2.764-6.164-2.764h-74.315v-53.32c0-16.074,8.653-24.224,25.725-24.224c2.433,0,48.591,0,48.591,0
		c4.562,0,8.258-3.698,8.258-8.258V8.319c0-4.562-3.696-8.258-8.258-8.258h-66.965C309.622,0.038,308.573,0,307.028,0
		c-11.618,0-52.006,2.281-83.908,31.63c-35.348,32.524-30.434,71.465-29.26,78.217v62.352h-58.918c-4.562,0-8.258,3.696-8.258,8.258
		v83.975C126.684,268.993,130.38,272.691,134.942,272.691z"/>
</g>
</svg>
