<?xml version="1.0" encoding="UTF-8"?>
<svg width="80px" height="71px" viewBox="0 0 80 71" version="1.1" xmlns="http://www.w3.org/2000/svg" xmlns:xlink="http://www.w3.org/1999/xlink">
    <!-- Generator: Sketch 42 (36781) - http://www.bohemiancoding.com/sketch -->
    <title>ic-framework_grey</title>
    <desc>Created with Sketch.</desc>
    <defs>
        <rect id="path-1" x="0" y="0" width="80" height="73.8121547"></rect>
    </defs>
    <g id="Page-1" stroke="none" stroke-width="1" fill="none" fill-rule="evenodd" opacity="0.15">
        <g id="ic-framework_grey">
            <mask id="mask-2" fill="white">
                <use xlink:href="#path-1"></use>
            </mask>
            <g id="Mask" opacity="0.5"></g>
            <g id="technology-3" mask="url(#mask-2)">
                <g transform="translate(-8.397790, -25.635359)" id="Capa_1">
                    <g>
                        <g id="Group" fill-rule="nonzero" fill="#000000">
                            <path d="M94.747698,0 L1.60589319,0 C0.642357274,0 0,0.642357274 0,1.60589319 L0,75.4769797 C0,76.4405157 0.642357274,77.0828729 1.60589319,77.0828729 L8.02946593,77.0828729 L8.02946593,94.747698 C8.02946593,95.7112339 8.6718232,96.3535912 9.63535912,96.3535912 L86.718232,96.3535912 C87.681768,96.3535912 88.3241252,95.7112339 88.3241252,94.747698 L88.3241252,77.0828729 L94.747698,77.0828729 C95.7112339,77.0828729 96.3535912,76.4405157 96.3535912,75.4769797 L96.3535912,1.60589319 C96.3535912,0.642357274 95.7112339,0 94.747698,0 Z M93.1418048,3.21178637 L93.1418048,12.8471455 L3.21178637,12.8471455 L3.21178637,3.21178637 L93.1418048,3.21178637 Z M85.1123389,38.5414365 L11.2412523,38.5414365 L11.2412523,28.9060773 L85.1123389,28.9060773 L85.1123389,38.5414365 Z M11.2412523,93.1418048 L11.2412523,41.7532228 L85.1123389,41.7532228 L85.1123389,93.1418048 L11.2412523,93.1418048 Z M88.3241252,73.8710866 L88.3241252,27.3001842 C88.3241252,26.3366483 87.681768,25.694291 86.718232,25.694291 L9.63535912,25.694291 C8.6718232,25.694291 8.02946593,26.3366483 8.02946593,27.3001842 L8.02946593,73.8710866 L3.21178637,73.8710866 L3.21178637,16.0589319 L93.1418048,16.0589319 L93.1418048,73.8710866 L88.3241252,73.8710866 Z" id="Shape"></path>
                            <rect id="Rectangle-path" x="78.6887661" y="32.1178637" width="3.21178637" height="3.21178637"></rect>
                            <rect id="Rectangle-path" x="72.2651934" y="32.1178637" width="3.21178637" height="3.21178637"></rect>
                            <path d="M19.1101289,82.2217311 L44.8044199,82.2217311 C45.7679558,82.2217311 46.4103131,81.5793738 46.4103131,80.6158379 L46.4103131,54.921547 C46.4103131,53.958011 45.7679558,53.3156538 44.8044199,53.3156538 L19.1101289,53.3156538 C18.146593,53.3156538 17.5042357,53.958011 17.5042357,54.921547 L17.5042357,80.6158379 C17.5042357,81.5793738 18.146593,82.2217311 19.1101289,82.2217311 Z M20.7160221,69.3745856 L30.3513812,69.3745856 L30.3513812,79.0099448 L20.7160221,79.0099448 L20.7160221,69.3745856 Z M33.5631676,79.0099448 L33.5631676,69.3745856 L43.1985267,69.3745856 L43.1985267,79.0099448 L33.5631676,79.0099448 Z M43.1985267,66.1627993 L33.5631676,66.1627993 L33.5631676,56.5274401 L43.1985267,56.5274401 L43.1985267,66.1627993 Z M30.3513812,56.5274401 L30.3513812,66.1627993 L20.7160221,66.1627993 L20.7160221,56.5274401 L30.3513812,56.5274401 Z" id="Shape"></path>
                            <rect id="Rectangle-path" x="51.2279926" y="53.3156538" width="6.42357274" height="3.21178637"></rect>
                            <rect id="Rectangle-path" x="51.2279926" y="59.7392265" width="3.21178637" height="3.21178637"></rect>
                            <rect id="Rectangle-path" x="57.6515654" y="59.7392265" width="3.21178637" height="3.21178637"></rect>
                            <rect id="Rectangle-path" x="64.0751381" y="59.7392265" width="3.21178637" height="3.21178637"></rect>
                            <rect id="Rectangle-path" x="51.2279926" y="66.1627993" width="28.9060773" height="3.21178637"></rect>
                            <rect id="Rectangle-path" x="51.2279926" y="72.586372" width="28.9060773" height="3.21178637"></rect>
                            <rect id="Rectangle-path" x="51.2279926" y="79.0099448" width="28.9060773" height="3.21178637"></rect>
                        </g>
                    </g>
                </g>
            </g>
        </g>
    </g>
</svg>