<?xml version="1.0" encoding="utf-8"?>
<!-- Generator: Adobe Illustrator 16.0.0, SVG Export Plug-In . SVG Version: 6.00 Build 0)  -->
<!DOCTYPE svg PUBLIC "-//W3C//DTD SVG 1.1//EN" "http://www.w3.org/Graphics/SVG/1.1/DTD/svg11.dtd">
<svg version="1.1" id="Layer_1" xmlns="http://www.w3.org/2000/svg" xmlns:xlink="http://www.w3.org/1999/xlink" x="0px" y="0px"
	 width="440.14px" height="589.445px" viewBox="0 0 440.14 589.445" enable-background="new 0 0 440.14 589.445"
	 xml:space="preserve">
<path fill="#FFFFFF" d="M106.178,396.196v-17.68h-4.626h-0.089c0,0,0-7.244,0-9.679c0-1.863,3.202-3.685,4.715-4.436V348.58h-4.626
	h-0.089c0,0,0-7.251,0-9.679c0-1.863,3.202-3.686,4.715-4.441v-11.149H93.367v-73.41h8.096v-15.746h-4.596c0,0,0-6.155,0-8.221
	c0-2.024,4.369-3.953,4.596-4.06v-12.388H90.564v-54.183h6.125v-16.329h-3.893c0,0,0-5.208,0-6.965c0-1.708,3.714-3.345,3.893-3.429
	v-7.12h-7.244V87.389c1.31-2.167,9.441-17.132-6.613-29.907l-0.982-0.619c-3.459-2.155-10.638-6.649-10.638-11.781V24.373h-1.935
	v20.709c0,5.239-7.566,9.906-10.793,11.9l-0.887,0.565c-15.983,12.727-7.792,27.681-6.471,29.853v34.074h-7.298v7.137
	c0.018,0,0.095-0.042,0.095-0.042v-0.006l0.006,0.006l0.006-0.006c0,0,3.947,1.703,3.947,3.459c0,1.756,0,6.965,0,6.965h-3.947
	h-0.012h-0.095v16.328h6.119v54.183H39.042v12.412c0.018,0,0.119-0.054,0.119-0.054l0,0h0.006l0,0c0,0,4.661,2.012,4.661,4.09
	c0,2.065,0,8.221,0,8.221h-4.667h-0.006h-0.119v15.745h7.232v72.446H33.458v11.744c0,0,0.065,0.03,0.089,0.042v-0.042
	c0,0,5.495,2.369,5.495,4.816c0,2.429,0,9.679,0,9.679h-0.09h-5.404h-0.09v15.46c0,0,0.065,0.023,0.09,0.035v-0.035
	c0,0,5.494,2.363,5.494,4.81c0,2.435,0,9.68,0,9.68h-0.09h-5.404h-0.09v18.644h0.965c5.982,0,8.619,6.447,9,7.471v155.464h52.784
	l0.059-155.845C96.582,403.459,99.463,396.196,106.178,396.196z M79.592,107.629c0-1.756,3.953-3.459,3.953-3.459
	s3.953,1.703,3.953,3.459c0,1.756,0,10.346,0,10.346h-7.906C79.592,117.98,79.592,109.385,79.592,107.629z M66.383,107.629
	c0-1.756,3.947-3.459,3.947-3.459s3.964,1.703,3.964,3.459c0,1.756,0,10.346,0,10.346h-7.911
	C66.383,117.98,66.383,109.385,66.383,107.629z M66.383,132.018c0-1.756,3.947-3.459,3.947-3.459s3.964,1.703,3.964,3.459
	c0,1.756,0,6.964,0,6.964H70.33h-3.947C66.383,138.982,66.383,133.773,66.383,132.018z M65.675,225.935
	c0-2.077,4.661-4.089,4.661-4.089s4.679,2.012,4.679,4.089c0,2.066,0,8.221,0,8.221h-4.679h-4.661
	C65.675,234.155,65.675,228,65.675,225.935z M57.395,378.517H51.9h-5.494c0,0,0-7.244,0-9.679s5.494-4.811,5.494-4.811
	s5.495,2.363,5.495,4.811C57.395,371.272,57.395,378.517,57.395,378.517z M57.395,348.58H51.9h-5.494c0,0,0-7.251,0-9.679
	c0-2.436,5.494-4.822,5.494-4.822s5.495,2.375,5.495,4.822C57.395,341.329,57.395,348.58,57.395,348.58z M59.412,234.155h-4.661
	h-4.673c0,0,0-6.155,0-8.221c0-2.077,4.673-4.089,4.673-4.089s4.661,2.012,4.661,4.089C59.412,228,59.412,234.155,59.412,234.155z
	 M61.073,138.982h-3.94h-3.959c0,0,0-5.208,0-6.964c0-1.756,3.959-3.459,3.959-3.459s3.94,1.703,3.94,3.459
	C61.073,133.773,61.073,138.982,61.073,138.982z M61.073,117.98h-7.899c0,0,0-8.59,0-10.346c0-1.756,3.959-3.459,3.959-3.459
	s3.94,1.703,3.94,3.459C61.073,109.391,61.073,117.98,61.073,117.98z M75.747,378.517h-5.495h-5.494c0,0,0-7.244,0-9.679
	s5.494-4.811,5.494-4.811s5.495,2.363,5.495,4.811C75.747,371.272,75.747,378.517,75.747,378.517z M75.747,348.58h-5.495h-5.494
	c0,0,0-7.251,0-9.679c0-2.436,5.494-4.822,5.494-4.822s5.495,2.375,5.495,4.822C75.747,341.329,75.747,348.58,75.747,348.58z
	 M79.592,132.018c0-1.756,3.953-3.459,3.953-3.459s3.953,1.703,3.953,3.459c0,1.756,0,6.964,0,6.964h-3.953h-3.953
	C79.592,138.982,79.592,133.773,79.592,132.018z M81.271,225.935c0-2.077,4.661-4.089,4.661-4.089s4.673,2.012,4.673,4.089
	c0,2.066,0,8.221,0,8.221h-4.673h-4.661C81.271,234.155,81.271,228,81.271,225.935z M94.1,378.517h-5.495h-5.494
	c0,0,0-7.244,0-9.679s5.494-4.811,5.494-4.811s5.495,2.363,5.495,4.811C94.1,371.272,94.1,378.517,94.1,378.517z M94.1,348.58
	h-5.495h-5.494c0,0,0-7.251,0-9.679c0-2.436,5.494-4.822,5.494-4.822s5.495,2.375,5.495,4.822C94.1,341.329,94.1,348.58,94.1,348.58
	z"/>
<path fill="#FFFFFF" d="M146.794,269.569V225.28h5.029v-13.352h-3.185c0,0,0-4.262,0-5.697c0-1.399,3.036-2.738,3.185-2.81v-5.822
	h-5.935V169.74c1.077-1.774,7.715-14.007-5.399-24.454l-0.815-0.506c-2.827-1.762-8.697-5.435-8.697-9.632v-16.936h-1.583v16.936
	c0,4.28-6.191,8.096-8.828,9.727l-0.721,0.458c-13.072,10.405-6.369,22.638-5.286,24.412v27.859h-5.977v5.833
	c0.013,0,0.078-0.03,0.078-0.03v-0.006l0,0h0.012c0,0,3.232,1.387,3.232,2.828c0,1.44,0,5.697,0,5.697h-3.232h-0.012h-0.078v13.352
	h5.013v44.289 M137.828,186.289c0-1.435,3.232-2.828,3.232-2.828s3.227,1.387,3.227,2.828c0,1.429,0,8.459,0,8.459h-6.459
	C137.828,194.748,137.828,187.718,137.828,186.289z M127.025,186.289c0-1.435,3.244-2.828,3.244-2.828s3.232,1.387,3.232,2.828
	c0,1.429,0,8.459,0,8.459h-6.477C127.025,194.748,127.025,187.718,127.025,186.289z M127.025,206.231
	c0-1.435,3.244-2.828,3.244-2.828s3.232,1.387,3.232,2.828s0,5.697,0,5.697h-3.232h-3.244
	C127.025,211.928,127.025,207.666,127.025,206.231z M122.691,211.928h-3.227h-3.232c0,0,0-4.262,0-5.697s3.232-2.828,3.232-2.828
	s3.227,1.387,3.227,2.828S122.691,211.928,122.691,211.928z M122.691,194.748h-6.459c0,0,0-7.03,0-8.459
	c0-1.435,3.232-2.828,3.232-2.828s3.227,1.387,3.227,2.828C122.691,187.718,122.691,194.748,122.691,194.748z M137.828,206.231
	c0-1.435,3.232-2.828,3.232-2.828s3.227,1.387,3.227,2.828s0,5.697,0,5.697h-3.227h-3.232
	C137.828,211.928,137.828,207.666,137.828,206.231z"/>
<path fill="#FFFFFF" d="M340.766,404.28l0.065,155.845h52.783V404.632c0.369-1.023,3.019-7.471,9.001-7.471h0.964v-18.645h-0.089
	h-5.405h-0.09c0,0,0-7.244,0-9.679s5.495-4.81,5.495-4.81v0.035c0.023-0.012,0.089-0.035,0.089-0.035v-15.46h-0.089h-5.405h-0.09
	c0,0,0-7.251,0-9.679c0-2.436,5.495-4.816,5.495-4.816v0.042c0.023-0.013,0.089-0.042,0.089-0.042v-11.744h-12.811v-72.44h7.233
	v-15.745h-0.119h-0.006h-4.655c0,0,0-6.155,0-8.221c0-2.078,4.655-4.09,4.655-4.09l0,0h0.006l0,0c0,0,0.106,0.054,0.119,0.054
	v-12.412h-10.906v-54.182h6.126v-16.329h-0.102h-0.012h-3.947c0,0,0-5.209,0-6.965c0-1.756,3.947-3.458,3.947-3.458l0.006,0.006
	l0.006-0.006v0.006c0,0,0.077,0.042,0.102,0.042v-7.137h-7.305V87.377c1.322-2.167,9.513-17.126-6.471-29.854l-0.887-0.565
	c-3.227-1.994-10.786-6.661-10.786-11.9V24.373h-1.935v20.709c0,5.131-7.18,9.625-10.638,11.781l-0.982,0.619
	c-16.055,12.774-7.923,27.74-6.613,29.907v34.074h-7.245v7.12c0.179,0.083,3.894,1.72,3.894,3.429c0,1.756,0,6.965,0,6.965h-3.894
	v16.329h6.126v54.183h-10.9v12.388c0.227,0.107,4.596,2.036,4.596,4.06c0,2.066,0,8.221,0,8.221h-4.596v15.746h8.097v73.41h-12.811
	v11.149c1.512,0.756,4.714,2.578,4.714,4.441c0,2.428,0,9.679,0,9.679h-0.095h-4.625v15.823c1.512,0.75,4.714,2.571,4.714,4.435
	c0,2.435,0,9.679,0,9.679h-0.089h-4.625v17.68C337.574,396.196,340.456,403.459,340.766,404.28z M357.446,117.98h-7.905
	c0,0,0-8.59,0-10.346c0-1.756,3.952-3.459,3.952-3.459s3.953,1.703,3.953,3.459C357.446,109.391,357.446,117.98,357.446,117.98z
	 M370.655,117.98h-7.905c0,0,0-8.59,0-10.346c0-1.756,3.965-3.459,3.965-3.459s3.94,1.703,3.94,3.459
	C370.655,109.391,370.655,117.98,370.655,117.98z M370.655,138.982h-3.94h-3.965c0,0,0-5.208,0-6.964
	c0-1.756,3.965-3.459,3.965-3.459s3.94,1.703,3.94,3.459C370.655,133.773,370.655,138.982,370.655,138.982z M371.363,234.155h-4.66
	h-4.674c0,0,0-6.155,0-8.221c0-2.077,4.674-4.089,4.674-4.089s4.66,2.012,4.66,4.089C371.363,228,371.363,234.155,371.363,234.155z
	 M379.637,368.838c0-2.435,5.501-4.811,5.501-4.811s5.494,2.363,5.494,4.811c0,2.435,0,9.679,0,9.679h-5.494h-5.501
	C379.637,378.517,379.637,371.272,379.637,368.838z M379.637,338.901c0-2.436,5.501-4.822,5.501-4.822s5.494,2.375,5.494,4.822
	c0,2.428,0,9.679,0,9.679h-5.494h-5.501C379.637,348.58,379.637,341.329,379.637,338.901z M377.631,225.935
	c0-2.077,4.661-4.089,4.661-4.089s4.667,2.012,4.667,4.089c0,2.066,0,8.221,0,8.221h-4.667h-4.661
	C377.631,234.155,377.631,228,377.631,225.935z M375.964,132.018c0-1.756,3.941-3.459,3.941-3.459s3.952,1.703,3.952,3.459
	c0,1.756,0,6.964,0,6.964h-3.952h-3.941C375.964,138.982,375.964,133.773,375.964,132.018z M375.964,107.629
	c0-1.756,3.941-3.459,3.941-3.459s3.952,1.703,3.952,3.459c0,1.756,0,10.346,0,10.346h-7.894
	C375.964,117.98,375.964,109.385,375.964,107.629z M361.291,368.838c0-2.435,5.494-4.811,5.494-4.811s5.494,2.363,5.494,4.811
	c0,2.435,0,9.679,0,9.679h-5.494h-5.494C361.291,378.517,361.291,371.272,361.291,368.838z M361.291,338.901
	c0-2.436,5.494-4.822,5.494-4.822s5.494,2.375,5.494,4.822c0,2.428,0,9.679,0,9.679h-5.494h-5.494
	C361.291,348.58,361.291,341.329,361.291,338.901z M357.446,138.982h-3.953h-3.952c0,0,0-5.208,0-6.964
	c0-1.756,3.952-3.459,3.952-3.459s3.953,1.703,3.953,3.459C357.446,133.773,357.446,138.982,357.446,138.982z M355.773,234.155
	h-4.661h-4.673c0,0,0-6.155,0-8.221c0-2.077,4.673-4.089,4.673-4.089s4.661,2.012,4.661,4.089
	C355.773,228,355.773,234.155,355.773,234.155z M342.932,368.838c0-2.435,5.501-4.811,5.501-4.811s5.494,2.363,5.494,4.811
	c0,2.435,0,9.679,0,9.679h-5.494h-5.501C342.932,378.517,342.932,371.272,342.932,368.838z M342.932,338.901
	c0-2.436,5.501-4.822,5.501-4.822s5.494,2.375,5.494,4.822c0,2.428,0,9.679,0,9.679h-5.494h-5.501
	C342.932,348.58,342.932,341.329,342.932,338.901z"/>
<path fill="#FFFFFF" d="M341.741,321.388v-48.622H218.519H95.296v48.622h11.751c0-0.797,0-7.25,0-9.53
	c0-2.44,5.494-4.822,5.494-4.822s5.494,2.37,5.494,4.822c0,2.429,0,9.673,0,9.673h-9.923v76.595h-1.929
	c-5.126,0-7.566,5.501-8.042,6.674v155.326h55.17V493.71c0-31.884,31.938-44.735,45.569-50.212c1.214-0.494,2.279-0.923,3.143-1.292
	c10.311-4.465,15.822-8.048,16.061-8.197l0.435-0.273l0.435,0.291c0.238,0.144,5.751,3.732,16.061,8.186
	c0.869,0.369,1.929,0.804,3.138,1.298c13.632,5.477,45.568,18.316,45.568,50.212v66.403h55.177V404.799
	c-0.477-1.173-2.917-6.674-8.049-6.674h-1.929V321.53h-9.917c0,0,0-7.244,0-9.673c0-2.44,5.494-4.822,5.494-4.822
	s5.501,2.37,5.501,4.822c0,2.28,0,8.733,0,9.53H341.741z M301.34,277.224h10.989v12.923H301.34V277.224z M266.016,277.224h10.995
	v12.923h-10.995V277.224z M230.68,277.224h10.989v12.923H230.68V277.224z M213.025,277.224h5.494h5.495v12.923h-5.495h-5.494
	V277.224z M213.025,311.857c0-2.44,5.494-4.822,5.494-4.822s5.495,2.37,5.495,4.822c0,2.429,0,9.673,0,9.673h-5.495h-5.494
	C213.025,321.53,213.025,314.286,213.025,311.857z M177.7,277.224h10.989v12.923H177.7V277.224z M142.37,277.224h10.989v12.923
	H142.37V277.224z M107.041,290.142v-12.923h10.988v12.923H107.041z M130.977,552.702h-7h-7.007c0,0,0-14.441,0-17.168
	c0-2.715,7.007-5.363,7.007-5.363s7,2.648,7,5.363C130.977,538.261,130.977,552.702,130.977,552.702z M130.977,507.633h-7h-7.007
	c0,0,0-14.453,0-17.168c0-2.72,7.007-5.363,7.007-5.363s7,2.644,7,5.363C130.977,493.18,130.977,507.633,130.977,507.633z
	 M130.977,465.368h-7h-7.007c0,0,0-8.09,0-10.798c0-2.721,7.007-5.37,7.007-5.37s7,2.649,7,5.37
	C130.977,457.278,130.977,465.368,130.977,465.368z M130.977,429.473h-7h-7.007c0,0,0-8.084,0-10.804
	c0-2.721,7.007-5.364,7.007-5.364s7,2.644,7,5.364C130.977,421.389,130.977,429.473,130.977,429.473z M134.49,384.077h-18.835
	c0,0,0-14.37,0-19.204s9.417-9.542,9.417-9.542s9.418,4.708,9.418,9.542S134.49,384.077,134.49,384.077z M135.698,321.53h-10.988
	c0,0,0-7.244,0-9.673c0-2.44,5.482-4.822,5.482-4.822s5.506,2.37,5.506,4.822C135.698,314.286,135.698,321.53,135.698,321.53z
	 M135.698,290.142h-10.988v-12.923h10.988V290.142z M142.37,311.852c0-2.429,5.495-4.816,5.495-4.816s5.494,2.375,5.494,4.816
	s0,9.679,0,9.679H142.37C142.37,321.53,142.37,314.286,142.37,311.852z M165.634,384.077H146.8c0,0,0-14.37,0-19.204
	s9.417-9.542,9.417-9.542s9.417,4.708,9.417,9.542S165.634,384.077,165.634,384.077z M171.022,321.53h-10.989c0,0,0-7.244,0-9.679
	s5.495-4.816,5.495-4.816s5.494,2.37,5.494,4.816S171.022,321.53,171.022,321.53z M171.022,290.142h-10.989v-12.923h10.989V290.142z
	 M177.7,311.852c0-2.429,5.501-4.816,5.501-4.816s5.488,2.375,5.488,4.816s0,9.679,0,9.679H177.7
	C177.7,321.53,177.7,314.286,177.7,311.852z M196.791,384.077h-18.835c0,0,0-14.37,0-19.204s9.418-9.542,9.418-9.542
	s9.417,4.721,9.417,9.542C196.791,369.707,196.791,384.077,196.791,384.077z M206.358,321.53h-10.989c0-0.023,0-7.244,0-9.673
	c0-2.435,5.482-4.81,5.482-4.81s5.507,2.364,5.507,4.81C206.358,314.286,206.358,321.507,206.358,321.53z M206.358,290.142h-10.989
	v-12.923h10.989V290.142z M227.936,384.077h-9.417h-9.417c0,0,0-14.37,0-19.204s9.417-9.536,9.417-9.536s9.417,4.708,9.417,9.542
	S227.936,384.077,227.936,384.077z M230.68,321.53c0-0.023,0-7.244,0-9.673c0-2.435,5.507-4.81,5.507-4.81s5.482,2.364,5.482,4.81
	c0,2.429,0,9.649,0,9.673H230.68z M259.081,384.077h-18.835c0,0,0-14.37,0-19.204s9.418-9.542,9.418-9.542s9.417,4.708,9.417,9.542
	S259.081,384.077,259.081,384.077z M259.337,321.53h-10.989c0,0,0-7.244,0-9.679c0-2.429,5.489-4.816,5.489-4.816
	s5.5,2.375,5.5,4.816S259.337,321.53,259.337,321.53z M259.337,290.142h-10.989v-12.923h10.989V290.142z M266.016,321.53
	c0,0,0-7.244,0-9.679s5.501-4.816,5.501-4.816s5.494,2.37,5.494,4.816s0,9.679,0,9.679H266.016z M290.239,384.077h-18.835
	c0,0,0-14.37,0-19.204s9.417-9.542,9.417-9.542s9.418,4.708,9.418,9.542S290.239,384.077,290.239,384.077z M294.661,321.53h-10.989
	c0,0,0-7.244,0-9.679c0-2.429,5.5-4.816,5.5-4.816s5.489,2.375,5.489,4.816S294.661,321.53,294.661,321.53z M294.661,290.142
	h-10.989v-12.923h10.989V290.142z M301.34,311.857c0-2.44,5.507-4.822,5.507-4.822s5.482,2.37,5.482,4.822c0,2.429,0,9.673,0,9.673
	H301.34C301.34,321.53,301.34,314.286,301.34,311.857z M320.068,552.702h-7.007h-7c0,0,0-14.441,0-17.168c0-2.715,7-5.363,7-5.363
	s7.007,2.648,7.007,5.363C320.068,538.261,320.068,552.702,320.068,552.702z M320.068,507.633h-7.007h-7c0,0,0-14.453,0-17.168
	c0-2.72,7-5.363,7-5.363s7.007,2.644,7.007,5.363C320.068,493.18,320.068,507.633,320.068,507.633z M320.068,465.368h-7.007h-7
	c0,0,0-8.09,0-10.798c0-2.721,7-5.37,7-5.37s7.007,2.649,7.007,5.37C320.068,457.278,320.068,465.368,320.068,465.368z
	 M320.068,429.473h-7.007h-7c0,0,0-8.084,0-10.804c0-2.721,7-5.364,7-5.364s7.007,2.644,7.007,5.364
	C320.068,421.389,320.068,429.473,320.068,429.473z M321.377,364.873c0,4.834,0,19.204,0,19.204h-18.829c0,0,0-14.37,0-19.204
	s9.418-9.542,9.418-9.542S321.377,360.058,321.377,364.873z M319.008,290.142v-12.923h10.989v12.923H319.008z"/>
<path fill="#FFFFFF" d="M323.443,269.569V225.28h5.013v-13.352h-0.077h-0.013h-3.232c0,0,0-4.262,0-5.697s3.232-2.828,3.232-2.828
	h0.013l0,0v0.006c0,0,0.065,0.03,0.077,0.03v-5.833h-5.977v-27.859c1.089-1.774,7.798-14.007-5.286-24.412l-0.721-0.458
	c-2.637-1.625-8.822-5.447-8.822-9.727v-16.936h-1.589v16.936c0,4.197-5.863,7.87-8.697,9.632l-0.821,0.506
	c-13.114,10.453-6.477,22.686-5.394,24.454v27.859h-5.935v5.822c0.143,0.072,3.179,1.405,3.179,2.81c0,1.435,0,5.697,0,5.697h-3.179
	v13.352h5.03v44.289 M299.209,194.748h-6.453c0,0,0-7.03,0-8.459c0-1.435,3.221-2.828,3.221-2.828s3.232,1.387,3.232,2.828
	C299.209,187.718,299.209,194.748,299.209,194.748z M310.013,194.748h-6.477c0,0,0-7.03,0-8.459c0-1.435,3.232-2.828,3.232-2.828
	s3.244,1.387,3.244,2.828C310.013,187.718,310.013,194.748,310.013,194.748z M310.013,211.928h-3.244h-3.232c0,0,0-4.262,0-5.697
	s3.232-2.828,3.232-2.828s3.244,1.387,3.244,2.828S310.013,211.928,310.013,211.928z M314.347,206.231
	c0-1.435,3.232-2.828,3.232-2.828s3.232,1.387,3.232,2.828s0,5.697,0,5.697h-3.232h-3.232
	C314.347,211.928,314.347,207.666,314.347,206.231z M314.347,186.289c0-1.435,3.232-2.828,3.232-2.828s3.232,1.387,3.232,2.828
	c0,1.429,0,8.459,0,8.459h-6.465C314.347,194.748,314.347,187.718,314.347,186.289z M299.209,211.928h-3.232h-3.221
	c0,0,0-4.262,0-5.697s3.221-2.828,3.221-2.828s3.232,1.387,3.232,2.828S299.209,211.928,299.209,211.928z"/>
</svg>
