<?xml version="1.0" encoding="UTF-8"?>
<svg width="82px" height="82px" viewBox="0 0 82 82" version="1.1" xmlns="http://www.w3.org/2000/svg" xmlns:xlink="http://www.w3.org/1999/xlink">
    <!-- Generator: Sketch 42 (36781) - http://www.bohemiancoding.com/sketch -->
    <title>ic-marketing &amp;  Communications_grey</title>
    <desc>Created with Sketch.</desc>
    <defs></defs>
    <g id="Page-1" stroke="none" stroke-width="1" fill="none" fill-rule="evenodd" opacity="0.15">
        <g id="ic-marketing-&amp;--Communications_grey" transform="translate(1.000000, 1.000000)" stroke="#000000" fill-rule="nonzero" fill="#000000">
            <path d="M73.482607,38.7285086 L60.4233731,38.7285086 C60.3197889,32.3815626 59.4431379,26.2482271 57.9192131,20.8099736 L66.4836401,20.8099736 C67.186012,20.8099736 67.7551315,20.2408541 67.7551315,19.5384822 C67.7551315,18.8361104 67.186012,18.2669908 66.4836401,18.2669908 L57.1403822,18.2669908 C55.7810732,14.1702455 54.0352307,10.5497161 51.9606653,7.64478209 C51.5524318,7.07328908 50.7581735,6.94071491 50.1870196,7.34894842 C49.6155266,7.7570124 49.483122,8.55127069 49.8911859,9.12259416 C51.6912787,11.6431987 53.2289356,14.7508932 54.4626214,18.2669908 L41.2714914,18.2669908 L41.2714914,6.51739304 C41.2714914,5.81502119 40.7023719,5.24590164 40,5.24590164 C39.2976281,5.24590164 38.7285086,5.81502119 38.7285086,6.51739304 L38.7285086,18.2669908 L25.5372091,18.2669908 C26.7708948,14.7508932 28.3085518,11.6431987 30.1086445,9.12259416 C30.5167085,8.55127069 30.3843039,7.7570124 29.8128109,7.34894842 C29.2411483,6.94088445 28.4472291,7.07345862 28.0391651,7.64478209 C25.9645998,10.5497161 24.2187573,14.170415 22.8594482,18.2669908 L13.5161903,18.2669908 C12.8138185,18.2669908 12.2446989,18.8361104 12.2446989,19.5384822 C12.2446989,20.2408541 12.8138185,20.8099736 13.5161903,20.8099736 L22.0806174,20.8099736 C20.5568621,26.2482271 19.6802111,32.3815626 19.5764574,38.7285086 L6.51739304,38.7285086 C5.81502119,38.7285086 5.24590164,39.2976281 5.24590164,40 C5.24590164,40.7023719 5.81502119,41.2714914 6.51739304,41.2714914 L19.5766269,41.2714914 C19.6802111,47.6184374 20.5568621,53.7517729 22.0807869,59.1900264 L13.5161903,59.1900264 C12.8138185,59.1900264 12.2446989,59.7591459 12.2446989,60.4615178 C12.2446989,61.1638896 12.8138185,61.7330092 13.5161903,61.7330092 L22.8594482,61.7330092 C24.2189268,65.8304326 25.9652779,69.4516401 28.0403519,72.3569132 C28.288547,72.7042847 28.6794882,72.8895834 29.0761935,72.8895834 C29.3318481,72.8895834 29.5900456,72.8126158 29.8141671,72.6527469 C30.3854906,72.2445134 30.5178952,71.4504246 30.1098313,70.8789316 C28.3092299,68.3581575 26.7712339,65.2497849 25.5372091,61.7331787 L38.7285086,61.7331787 L38.7285086,73.482607 C38.7285086,74.1849788 39.2976281,74.7540984 40,74.7540984 C40.7023719,74.7540984 41.2714914,74.1849788 41.2714914,73.482607 L41.2714914,61.7330092 L54.4627909,61.7330092 C53.2289356,65.2497849 51.6907701,68.357988 49.8901687,70.8787621 C49.4821048,71.4502551 49.6145094,72.2443439 50.1858329,72.6525774 C50.4097849,72.8124462 50.6679824,72.8894138 50.9238065,72.8894138 C51.3206813,72.8894138 51.711453,72.7041152 51.9596481,72.3567437 C54.0347221,69.4514706 55.7809036,65.8302631 57.1405518,61.7328397 L66.4838097,61.7328397 C67.1861815,61.7328397 67.7553011,61.1637201 67.7553011,60.4613483 C67.7553011,59.7589764 67.1861815,59.1898569 66.4838097,59.1898569 L57.9192131,59.1898569 C59.4431379,53.7516034 60.3197889,47.6182679 60.4233731,41.2713219 L73.482607,41.2713219 C74.1849788,41.2713219 74.7540984,40.7022023 74.7540984,39.9998305 C74.7540984,39.2974586 74.1849788,38.7285086 73.482607,38.7285086 L73.482607,38.7285086 Z M55.2816313,20.8099736 C56.8604846,26.1812619 57.7729068,32.331042 57.8798816,38.7285086 L41.2714914,38.7285086 L41.2714914,20.8099736 L55.2816313,20.8099736 Z M24.7183687,20.8099736 L38.7285086,20.8099736 L38.7285086,38.7285086 L22.1201184,38.7285086 C22.2272627,32.3308725 23.1395154,26.1812619 24.7183687,20.8099736 Z M24.7183687,59.1900264 C23.1395154,53.8187381 22.2270932,47.668958 22.1201184,41.2714914 L38.7285086,41.2714914 L38.7285086,59.1900264 L24.7183687,59.1900264 L24.7183687,59.1900264 Z M55.2816313,59.1900264 L41.2714914,59.1900264 L41.2714914,41.2714914 L57.8798816,41.2714914 C57.7727373,47.6691275 56.8604846,53.8189076 55.2816313,59.1900264 Z" id="Shape"></path>
            <path d="M68.2842553,11.7157447 C60.7291915,4.16068085 50.6844255,0 40,0 C29.3155745,0 19.2708085,4.16068085 11.7157447,11.7157447 C4.16068085,19.2708085 0,29.3155745 0,40.0001702 C0,47.8760851 2.27931915,55.4723404 6.59812766,62.0114043 L1.70995745,76.6748936 C1.55710638,77.133617 1.67642553,77.6394894 2.01838298,77.9814468 C2.36034043,78.323234 2.86587234,78.442383 3.32493617,78.2898723 L17.988766,73.4020426 C24.528,77.7206809 32.1240851,80 40,80 C50.6844255,80 60.7291915,75.8393191 68.2842553,68.2842553 C75.8393191,60.7291915 80,50.6844255 80,40.0001702 C80,29.3155745 75.8393191,19.2708085 68.2842553,11.7157447 Z M40,77.4468085 C32.4270638,77.4468085 25.1310638,75.1962553 18.9002553,70.9387234 C18.6854468,70.792 18.4340426,70.7160851 18.1800851,70.7160851 C18.0444255,70.7160851 17.9080851,70.7377021 17.7763404,70.781617 L4.93957447,75.0602553 L9.2187234,62.2238298 C9.34485106,61.8451064 9.2866383,61.4292766 9.06161702,61.0997447 C4.80374468,54.8692766 2.55319149,47.5731064 2.55319149,40.0001702 C2.55319149,19.3518298 19.3516596,2.55319149 40,2.55319149 C60.6483404,2.55319149 77.4468085,19.3518298 77.4468085,40.0001702 C77.4468085,60.6483404 60.6483404,77.4468085 40,77.4468085 Z" id="Shape"></path>
        </g>
    </g>
</svg>