<?xml version="1.0" encoding="utf-8"?>
<!-- Generator: Adobe Illustrator 16.0.0, SVG Export Plug-In . SVG Version: 6.00 Build 0)  -->
<!DOCTYPE svg PUBLIC "-//W3C//DTD SVG 1.1//EN" "http://www.w3.org/Graphics/SVG/1.1/DTD/svg11.dtd">
<svg version="1.1" id="Layer_1" xmlns="http://www.w3.org/2000/svg" xmlns:xlink="http://www.w3.org/1999/xlink" x="0px" y="0px"
	 width="612px" height="600.5px" viewBox="0 0 612 600.5" enable-background="new 0 0 612 600.5" xml:space="preserve">
<g>
	<rect x="472.507" y="304.319" fill="#c2c32d" width="19.604" height="19.604"/>
	<rect x="472.507" y="343.526" fill="#c2c32d" width="19.604" height="19.603"/>
	<rect x="472.507" y="382.732" fill="#c2c32d" width="19.604" height="19.603"/>
	<path fill="#c2c32d" d="M482.309,187.776c37.771,0,68.611-30.719,68.611-68.611c0-37.891-30.72-68.611-68.611-68.611
		c-37.771,0-68.611,30.72-68.611,68.611C413.697,157.057,444.537,187.776,482.309,187.776z M482.309,70.277
		c27.014,0,49.008,21.994,49.008,49.008s-21.994,49.008-49.008,49.008s-49.008-21.994-49.008-49.008S455.295,70.277,482.309,70.277z
		"/>
	<path fill="#c2c32d" d="M242.29,295.474v-89.051h-19.604v89.051c-18.408,4.184-32.393,19.962-34.066,39.207v-5.857h-55.223v19.604
		h55.223v-5.857c2.032,22.592,20.799,40.402,43.868,40.402c24.384,0,44.227-19.842,44.227-44.227
		C276.834,317.587,262.013,299.897,242.29,295.474z M232.488,363.249c-13.626,0-24.743-11.117-24.743-24.743
		s11.117-24.743,24.743-24.743s24.743,11.116,24.743,24.743S246.115,363.249,232.488,363.249z"/>
	<path fill="#c2c32d" d="M526.894,196.861l-5.259-0.358l-39.326,52.354l-39.326-52.354l-5.259,0.358
		c-7.292,0.478-14.344,1.913-21.038,3.945c-43.39-57.973-111.642-92.398-184.197-92.398c-126.823,0-230.098,103.275-230.098,230.217
		s103.275,230.098,230.098,230.098c65.742,0,128.018-28.209,171.408-76.619v96.223h156.705V431.62h49.008V284.716
		C609.609,238.219,573.271,199.61,526.894,196.861z M346.162,515.65l-9.563-16.614l-16.973,9.802l9.682,16.734
		c-26.655,13.746-56.299,21.874-86.899,23.309v-44.944h-19.603v44.705c-31.198-1.435-60.602-9.563-86.78-23.189l9.563-16.614
		l-16.973-9.802l-9.563,16.614c-25.46-16.375-47.095-38.011-63.471-63.59l16.615-9.563l-9.801-16.974l-16.615,9.563
		c-13.626-26.178-21.754-55.582-23.189-86.78h44.705v-19.603H22.472c1.435-31.198,9.563-60.603,23.189-86.78l16.615,9.563
		l9.801-16.974l-16.615-9.563c16.376-25.46,38.011-47.095,63.471-63.471l9.563,16.496l16.974-9.802l-9.563-16.615
		c26.177-13.626,55.582-21.755,86.779-23.189v44.705h19.604V128.37c30.6,1.434,60.124,9.563,86.779,23.309l-9.563,16.615
		l16.974,9.802l9.682-16.615c19.723,12.67,37.414,28.688,52.235,47.454c-3.107,1.793-5.977,3.825-8.726,5.977
		c-0.717,0.478-1.314,1.076-1.912,1.554c-2.032,1.554-3.945,3.347-5.738,5.021c-0.836,0.717-1.554,1.435-2.271,2.271
		c-2.151,2.271-4.184,4.542-6.097,7.052c-0.717,0.957-1.434,2.032-2.151,2.988c-1.195,1.674-2.391,3.467-3.466,5.14
		c-0.718,1.195-1.435,2.391-2.152,3.706c-1.075,2.032-2.031,4.064-2.988,6.096c-0.478,0.957-0.956,1.793-1.314,2.75
		c-1.195,2.988-2.271,5.977-3.107,9.204c-0.239,0.957-0.479,2.032-0.718,3.108c-0.598,2.391-1.075,4.901-1.435,7.411
		c-0.119,1.076-0.358,2.032-0.478,3.108c-0.358,3.466-0.718,6.933-0.718,10.399V431.62h49.008v29.166
		C388.118,482.899,368.396,501.427,346.162,515.65z M590.006,412.018h-49.008v156.705H491.99V431.381h-19.603v137.342H423.38
		V467.002v-54.984h-49.008V284.716c0-3.108,0.239-6.096,0.717-9.204c0.12-0.598,0.12-1.315,0.239-1.913
		c0.479-2.869,1.076-5.618,1.912-8.367c0.239-0.598,0.359-1.195,0.598-1.793c0.718-2.391,1.674-4.662,2.75-6.933
		c0.238-0.478,0.478-1.076,0.717-1.554c1.195-2.51,2.63-4.781,4.064-7.052c0.478-0.717,0.956-1.435,1.434-2.032
		c1.555-2.271,3.228-4.422,5.021-6.455c0.358-0.358,0.718-0.717,1.076-1.076c1.912-2.032,3.944-3.945,6.096-5.857
		c0.239-0.12,0.358-0.359,0.598-0.479c2.511-2.032,5.14-3.944,8.009-5.618c0.119,0,0.239-0.12,0.239-0.12
		c2.868-1.673,5.856-3.228,9.084-4.542l1.315-0.479c4.9-1.912,10.16-3.347,15.539-4.064l48.529,64.547l48.529-64.547
		c33.589,4.542,59.288,33.469,59.288,67.894v126.942H590.006z"/>
</g>
</svg>
