<?xml version="1.0" encoding="utf-8"?>
<!-- Generator: Adobe Illustrator 16.0.0, SVG Export Plug-In . SVG Version: 6.00 Build 0)  -->
<!DOCTYPE svg PUBLIC "-//W3C//DTD SVG 1.1//EN" "http://www.w3.org/Graphics/SVG/1.1/DTD/svg11.dtd">
<svg version="1.1" id="Layer_1" xmlns="http://www.w3.org/2000/svg" xmlns:xlink="http://www.w3.org/1999/xlink" x="0px" y="0px"
	 width="612px" height="617.5px" viewBox="0 0 612 617.5" enable-background="new 0 0 612 617.5" xml:space="preserve">
<g>
	<path fill="#41CFBC" stroke="#48D1BE" stroke-width="7" d="M308.84,311.177c2.338,2.332,2.338,6.126,0,8.464s-6.132,2.338-8.47,0
		s-2.338-6.132,0-8.464C302.708,308.833,306.508,308.833,308.84,311.177z M469.759,157.534c-0.128-0.159-0.189-0.361-0.337-0.508
		c-0.152-0.153-0.349-0.208-0.508-0.337C427.213,115.202,369.771,89.51,306.44,89.51c-63.33,0-120.76,25.68-162.461,67.161
		c-0.165,0.134-0.373,0.196-0.526,0.355c-0.159,0.153-0.214,0.355-0.349,0.526c-41.481,41.702-67.167,99.132-67.167,162.461l0,0
		c0,3.305,2.681,5.985,5.991,5.985h47.853c3.305,0,5.991-2.681,5.991-5.985s-2.68-5.992-5.991-5.992H88.067
		c1.512-55.729,23.972-106.298,59.798-144.126l29.431,29.438c1.169,1.169,2.699,1.75,4.229,1.75c1.536,0,3.066-0.581,4.235-1.75
		s1.75-2.705,1.75-4.241c0-1.53-0.582-3.066-1.75-4.235l-29.437-29.425c37.828-35.827,88.391-58.281,144.126-59.792v41.714
		c0,3.305,2.681,5.992,5.991,5.992c3.305,0,5.991-2.681,5.991-5.992V101.64c55.723,1.512,106.293,23.972,144.127,59.792
		l-29.438,29.431c-2.338,2.338-2.338,6.126,0,8.47c1.169,1.169,2.699,1.75,4.229,1.75c1.536,0,3.066-0.581,4.235-1.75l29.431-29.438
		c35.827,37.828,58.281,88.391,59.799,144.126h-41.72c-3.312,0-5.992,2.681-5.992,5.992s2.681,5.985,5.992,5.985h47.852
		c3.312,0,5.985-2.681,5.992-5.985l0,0C536.938,256.672,511.253,199.236,469.759,157.534z M501.179,514.422
		c-52.014,52.014-121.176,80.662-194.732,80.662c-73.568,0-142.724-28.648-194.738-80.662
		c-52.02-52.014-80.662-121.176-80.662-194.738s28.642-142.718,80.662-194.738c52.014-52.014,121.17-80.662,194.738-80.662
		c73.563,0,142.719,28.654,194.732,80.662C608.555,232.327,608.555,407.047,501.179,514.422z M492.709,133.415
		C442.953,83.666,376.803,56.26,306.44,56.26c-70.368,0-136.519,27.406-186.274,77.155
		c-49.755,49.756-77.155,115.907-77.155,186.269s27.399,136.513,77.155,186.269c49.756,49.756,115.907,77.154,186.274,77.154
		c70.362,0,136.513-27.405,186.269-77.154C595.421,403.246,595.421,236.127,492.709,133.415z M393.088,226.923
		c2.025,2.032,2.331,5.214,0.729,7.589l-50.76,75.104c-0.306,0.453-0.765,0.753-1.169,1.102c1.156,9.125-0.985,18.244-6.224,25.906
		c-5.668,8.292-14.229,13.892-24.101,15.747c-2.308,0.435-4.664,0.655-6.996,0.655c-18.054,0-33.586-12.895-36.934-30.661
		c-3.837-20.386,9.621-40.086,30.006-43.93c2.307-0.428,4.657-0.655,6.989-0.655c1.567,0,3.072,0.221,4.59,0.404
		c0.361-0.435,0.68-0.906,1.157-1.23l75.11-50.759C387.88,224.597,391.056,224.903,393.088,226.923z M329.807,310.669
		c-0.435-2.301-1.248-4.431-2.233-6.457l-11.806-11.806c-3.391-1.652-7.148-2.65-11.126-2.65c-1.591,0-3.194,0.153-4.773,0.453
		c-13.898,2.62-23.072,16.053-20.459,29.945c2.283,12.111,12.858,20.906,25.166,20.906c1.591,0,3.194-0.153,4.773-0.453
		c6.732-1.267,12.564-5.08,16.433-10.734C329.636,324.219,331.073,317.395,329.807,310.669z M366.563,253.447l-43.329,29.284
		c5.819,3.33,10.66,8.201,14.021,14.094L366.563,253.447z"/>
</g>
</svg>
