<?xml version="1.0" encoding="utf-8"?>
<!-- Generator: Adobe Illustrator 16.0.0, SVG Export Plug-In . SVG Version: 6.00 Build 0)  -->
<!DOCTYPE svg PUBLIC "-//W3C//DTD SVG 1.1//EN" "http://www.w3.org/Graphics/SVG/1.1/DTD/svg11.dtd">
<svg version="1.1" id="Layer_1" xmlns="http://www.w3.org/2000/svg" xmlns:xlink="http://www.w3.org/1999/xlink" x="0px" y="0px"
	 width="612px" height="618.5px" viewBox="0 0 612 618.5" enable-background="new 0 0 612 618.5" xml:space="preserve">
<path fill="#FA4949" stroke="#FA4949" stroke-width="6" d="M421.968,541.558l-134.683-86.236
	c11.983-13.104,21.15-30.588,26.102-51.365c0.264-1.358,6.433-33.354,7.864-45.184c1.347-11.279,3.164-46.004,3.243-47.803
	c0-2.265-0.122-4.541-0.312-6.818c0.079-1.034,0.11-1.916,0.11-2.57c0-52.363-40.992-94.958-91.378-94.958
	c-50.368,0-91.359,42.595-91.359,94.958c0,0.282,0.006,0.637,0.031,1.034c-0.294,2.956-0.441,5.716-0.435,8.69
	c0.08,1.463,1.891,36.182,3.244,47.461c1.426,11.836,7.595,43.832,7.907,45.453c4.908,20.563,13.954,37.957,25.857,51.005
	L43.14,541.589c-1.787,1.15-2.876,3.127-2.876,5.245v29.369c0,10.313,8.372,18.697,18.653,18.697h347.268
	c10.3,0,18.66-8.385,18.66-18.697v-29.395C424.845,544.68,423.761,542.715,421.968,541.558z M412.348,576.197h-0.013
	c0,3.439-2.76,6.23-6.15,6.23H58.917c-3.396,0-6.144-2.791-6.144-6.23v-25.961l138.25-88.422c2.907-1.866,3.758-5.716,1.891-8.61
	c-0.08-0.116-0.202-0.172-0.269-0.282c-0.062-0.306-0.153-0.587-0.404-0.808c-13.176-11.812-23.237-29.29-28.311-50.601
	c-0.061-0.33-6.346-32.9-7.711-44.266c-1.297-10.857-3.152-46.255-3.164-46.285c0-2.356,0.141-4.823,0.428-7.528l0.062-0.557
	l-0.08-1.291c0-45.539,35.649-82.589,79.462-82.589c43.825,0,79.48,37.05,79.48,82.589c0,0.514-0.055,1.242-0.109,2.105
	l-0.056,0.521l0.056,0.508c0.177,2.093,0.312,4.174,0.317,5.918c-0.03,0.361-1.885,35.753-3.176,46.598
	c-1.377,11.377-7.656,43.954-7.668,44.009c-5,21.016-14.768,38.286-27.552,50.11c-0.006,0.013-0.018,0.03-0.018,0.037
	c-0.692,0.452-1.31,1.059-1.787,1.793c-1.873,2.907-1.028,6.756,1.873,8.623l138.055,88.391v25.998H412.348z"/>
<path fill="#FA4949" stroke="#FA4949" stroke-width="6" d="M449.435,44.1c-67.437,0-122.296,54.866-122.296,122.302
	c0,30.361,11.236,59.443,31.652,81.983l-13.06,43.372l-4.107,14.388l48.557-32.821c18.078,10.067,38.55,15.379,59.26,15.379
	c67.442,0,122.302-54.866,122.302-122.296C571.736,98.966,516.871,44.1,449.435,44.1z M449.435,277.798
	c-20.264,0-40.117-5.52-57.424-15.973l-2.313-1.42l-29.101,19.792l7.668-25.471l2.699-9.315l-1.652-1.683
	c-20.172-20.888-31.273-48.342-31.273-77.314c0-61.427,49.97-111.396,111.391-111.396c61.426,0,111.396,49.97,111.396,111.396
	C560.831,227.829,510.861,277.798,449.435,277.798z"/>
<path fill="#FA4949" d="M513.7,120.6h-64.174h-0.184h-64.162c-3.966,0-7.197,3.225-7.197,7.197v77.4
	c0,3.966,3.226,7.203,7.197,7.203H444.3h5.135H513.7c3.966,0,7.197-3.231,7.197-7.203v-77.4
	C520.892,123.825,517.666,120.6,513.7,120.6z M449.354,125.998h0.166h61.469l-61.555,47.687l-61.549-47.687H449.354z
	 M515.487,205.197c0,0.991-0.802,1.799-1.793,1.799h-60.086h-9.082h-59.346c-0.991,0-1.806-0.808-1.806-1.799v-75.38l48.293,37.405
	l-33.477,25.979l0.024,0.018c-0.532,0.533-0.856,1.267-0.856,2.081c0,1.634,1.328,2.95,2.95,2.95c0.813,0,1.542-0.331,2.08-0.851
	l0,0l33.997-26.512l10.189,7.895c0.759,0.673,1.763,1.102,2.864,1.102s2.1-0.428,2.858-1.102l10.195-7.895l33.997,26.512l0,0
	c0.532,0.52,1.267,0.851,2.081,0.851c1.628,0,2.949-1.316,2.949-2.95c0-0.814-0.324-1.548-0.862-2.081l0.03-0.018l-33.477-25.979
	l48.281-37.405v75.38H515.487z"/>
</svg>
