<?xml version="1.0" encoding="utf-8"?>
<!-- Generator: Adobe Illustrator 16.0.0, SVG Export Plug-In . SVG Version: 6.00 Build 0)  -->
<!DOCTYPE svg PUBLIC "-//W3C//DTD SVG 1.1//EN" "http://www.w3.org/Graphics/SVG/1.1/DTD/svg11.dtd">
<svg version="1.1" id="Layer_1" xmlns="http://www.w3.org/2000/svg" xmlns:xlink="http://www.w3.org/1999/xlink" x="0px" y="0px"
	 width="612px" height="560px" viewBox="0 31.5 612 560" enable-background="new 0 31.5 612 560" xml:space="preserve">
<g>
	<path fill="#C35384" d="M318.24,326.844l77.724-38.556l0,0L318.24,326.844z M318.24,326.844l77.724-38.556l0,0L318.24,326.844z
		 M318.24,326.844l77.724-38.556l0,0L318.24,326.844z M318.24,326.844l77.724-38.556l0,0L318.24,326.844z"/>
	<path fill="#C35384" d="M562.428,194.04L562.428,194.04c0-0.612,0-1.224-0.611-1.224c0,0,0-0.612-0.612-0.612
		c0,0,0-0.612-0.612-0.612l0,0c0-0.612-0.611-0.612-0.611-1.224l0,0c-0.612-0.612-0.612-0.612-1.225-1.224
		c-0.611-0.612-1.836-1.224-3.06-1.836h-0.612l-244.188-122.4c-1.225-1.836-3.061-2.448-4.896-2.448c-0.612,0-1.224,0-1.836,0
		c-0.612,0-1.224,0-1.836,0.612c-0.612,0-1.224,0.612-1.836,0.612h-0.612l-244.188,122.4H55.08c-1.224,0.612-1.836,1.224-3.06,1.836
		c-0.612,0.612-0.612,0.612-1.224,1.224c-0.612,0.612-0.612,0.612-1.224,1.224c0,0-0.612,0.612-0.612,1.224c0,0,0,0.612-0.612,0.612
		c0.612,1.836,0.612,3.06,0.612,4.896v244.8c0,4.896,2.448,9.18,6.732,11.016l244.8,122.4h0.612c0.612,0,1.224,0.611,1.224,0.611
		c0.612,0,1.224,0,1.836,0.612c0.612,0,1.224,0,1.836,0c0.612,0,1.224,0,1.836,0s1.224,0,1.836-0.612c0.612,0,1.224,0,1.224-0.611
		h0.612l244.8-122.4c4.284-1.836,6.732-6.12,6.732-11.016V197.1C563.04,195.876,563.04,195.264,562.428,194.04z M306,88.164
		L523.26,197.1l-63.647,31.824l0,0L242.352,120.6L306,88.164z M73.44,216.684l220.32,110.16v217.26L73.44,433.944V216.684z
		 M306,306.036L88.74,197.1l72.216-36.108l217.26,108.936L306,306.036z M538.56,434.556L318.24,544.716V326.844l77.724-38.556
		v96.696l7.956-16.524l7.956,7.956l7.956-16.524l8.568,8.568l7.956-16.524l7.956,7.956l8.567-15.912l7.956,7.956l7.956-16.524
		l8.568,8.568v-96.696l61.199-30.6V434.556z"/>
</g>
</svg>
