<?xml version="1.0" encoding="UTF-8"?>
<svg width="488px" height="512px" viewBox="0 0 488 512" version="1.1" xmlns="http://www.w3.org/2000/svg" xmlns:xlink="http://www.w3.org/1999/xlink">
    <!-- Generator: Sketch 41.2 (35397) - http://www.bohemiancoding.com/sketch -->
    <title>Slice 1</title>
    <desc>Created with Sketch.</desc>
    <defs></defs>
    <g id="Page-1" stroke="none" stroke-width="1" fill="none" fill-rule="evenodd">
        <g id="005-network" fill="#6FD66E">
            <path d="M145.52,11.328 C138.774,4.13 129.247,0 119.381,0 L95.798,0 C85.933,0 76.406,4.13 69.66,11.328 C62.915,18.529 59.415,28.304 60.056,38.149 L61.105,54.22 L63.552,91.75 C64.538,106.864 73.051,120.246 86.322,127.546 C92.981,131.21 100.284,133.04 107.59,133.04 C114.894,133.04 122.199,131.208 128.857,127.547 C142.129,120.247 150.641,106.866 151.628,91.75 L154.425,48.863 L155.124,38.149 C155.765,28.304 152.264,18.528 145.52,11.328 Z M80.412,36.821 C80.132,32.521 81.599,28.42 84.546,25.276 C87.493,22.131 91.489,20.399 95.799,20.399 L112.074,20.399 L109.163,28.162 C107.694,30.254 100.49,38.993 80.768,42.283 L80.412,36.821 Z M131.271,90.423 C130.742,98.551 126.163,105.747 119.026,109.673 C111.864,113.611 103.313,113.611 96.152,109.673 C89.015,105.746 84.437,98.551 83.907,90.423 L82.1,62.704 C98.873,60.249 109.914,54.505 116.887,49.083 C118.134,49.951 119.508,50.772 121.006,51.546 C123.913,53.048 128.041,54.532 133.513,56.038 L131.271,90.423 Z M130.371,33.423 C129.916,33.188 129.544,32.974 129.216,32.776 L131.601,26.417 C133.554,28.942 134.657,31.956 134.788,35.139 C132.273,34.321 130.975,33.736 130.371,33.423 Z" id="Shape"></path>
            <path d="M214.973,214.855 L211.068,193.295 C211.068,193.295 211.068,193.295 211.068,193.294 C206.216,166.515 185,145.142 158.277,140.11 C154.244,139.35 150.118,138.965 146.011,138.965 L134.248,138.965 C131.543,138.965 128.949,140.04 127.036,141.952 L107.589,161.399 L88.142,141.952 C86.23,140.04 83.635,138.965 80.93,138.965 L69.168,138.965 C65.062,138.965 60.935,139.351 56.904,140.11 C30.179,145.142 8.964,166.515 4.112,193.295 L0.206,214.855 C-0.333,217.829 0.475,220.89 2.414,223.21 C4.352,225.529 7.219,226.871 10.242,226.871 L204.937,226.871 C207.96,226.87 210.828,225.53 212.765,223.21 C214.703,220.89 215.512,217.829 214.973,214.855 Z M22.455,206.473 L24.184,196.931 C27.538,178.414 42.205,163.635 60.681,160.157 C63.472,159.631 66.327,159.365 69.169,159.365 L76.707,159.365 L100.378,183.037 C104.361,187.019 110.819,187.019 114.803,183.037 L138.474,159.365 L146.012,159.365 C148.853,159.365 151.708,159.632 154.502,160.157 C172.976,163.635 187.642,178.414 190.997,196.931 L192.726,206.473 L22.455,206.473 Z" id="Shape"></path>
            <path d="M418.341,296.457 C411.594,289.257 402.067,285.129 392.202,285.129 L368.619,285.129 C358.753,285.129 349.226,289.259 342.481,296.457 C335.736,303.658 332.236,313.433 332.877,323.277 L333.924,339.349 L336.372,376.879 C337.358,391.994 345.87,405.377 359.143,412.677 C365.801,416.339 373.106,418.169 380.41,418.169 C387.715,418.169 395.019,416.338 401.678,412.676 C414.95,405.376 423.461,391.995 424.448,376.879 L427.245,333.992 L427.944,323.278 C428.586,313.433 425.086,303.658 418.341,296.457 Z M353.233,321.95 C352.952,317.649 354.421,313.549 357.368,310.405 C360.315,307.26 364.311,305.528 368.62,305.528 L384.895,305.528 L381.984,313.291 C380.515,315.383 373.311,324.122 353.589,327.413 L353.233,321.95 Z M404.091,375.552 C403.563,383.681 398.985,390.876 391.848,394.802 C384.686,398.741 376.134,398.74 368.973,394.802 C361.836,390.876 357.258,383.681 356.728,375.552 L354.92,347.834 C371.692,345.378 382.734,339.634 389.706,334.213 C390.954,335.081 392.328,335.902 393.828,336.677 C396.735,338.178 400.863,339.662 406.333,341.167 L404.091,375.552 Z M403.192,318.552 C402.737,318.317 402.365,318.103 402.037,317.905 L404.422,311.546 C406.375,314.07 407.479,317.084 407.609,320.268 C405.094,319.449 403.795,318.864 403.192,318.552 Z" id="Shape"></path>
            <path d="M487.795,499.982 L483.889,478.423 L483.889,478.424 C479.038,451.645 457.822,430.272 431.096,425.239 C427.059,424.479 422.933,424.094 418.833,424.094 L407.071,424.094 C404.366,424.094 401.772,425.169 399.859,427.081 L380.411,446.528 L360.964,427.081 C359.052,425.169 356.457,424.094 353.752,424.094 L341.99,424.094 C337.89,424.094 333.764,424.48 329.725,425.239 C303,430.272 281.785,451.646 276.933,478.424 L273.027,499.983 C272.488,502.958 273.296,506.019 275.235,508.339 C277.173,510.658 280.04,512 283.063,512 L477.759,512 C480.782,512 483.649,510.659 485.587,508.339 C487.525,506.018 488.333,502.957 487.795,499.982 Z M295.275,491.602 L297.004,482.061 C300.358,463.544 315.025,448.765 333.498,445.286 C336.296,444.76 339.151,444.494 341.989,444.494 L349.527,444.494 L373.198,468.166 C375.11,470.078 377.705,471.153 380.41,471.153 C383.115,471.153 385.709,470.078 387.622,468.166 L411.294,444.494 L418.831,444.494 C421.668,444.494 424.525,444.761 427.321,445.286 C445.795,448.765 460.461,463.544 463.816,482.061 C463.816,482.061 463.816,482.061 463.816,482.062 L465.545,491.602 L295.275,491.602 Z" id="Shape"></path>
            <path d="M450.751,254.462 C450.465,248.836 445.658,244.492 440.047,244.794 C434.421,245.081 430.093,249.873 430.379,255.499 C430.549,258.838 430.635,262.233 430.635,265.585 C430.635,271.217 435.201,275.784 440.834,275.784 C446.467,275.784 451.033,271.217 451.033,265.585 C451.034,261.888 450.939,258.146 450.751,254.462 Z" id="Shape"></path>
            <path d="M441.154,200.92 C427.706,158.155 400.408,119.773 364.287,92.845 C330.587,67.722 291.122,53.283 249.417,50.688 L255.451,44.654 C259.434,40.671 259.434,34.213 255.451,30.229 C251.468,26.247 245.01,26.247 241.026,30.229 L217.211,54.044 C213.228,58.027 213.228,64.485 217.211,68.469 L241.026,92.284 C243.018,94.275 245.628,95.271 248.238,95.271 C250.848,95.271 253.459,94.275 255.45,92.284 C259.433,88.301 259.433,81.843 255.45,77.859 L248.678,71.084 C328.776,76.307 397.349,129.613 421.695,207.039 C423.065,211.395 427.086,214.182 431.422,214.182 C432.436,214.182 433.466,214.03 434.484,213.709 C439.857,212.02 442.844,206.293 441.154,200.92 Z" id="Shape"></path>
            <path d="M249.295,461.675 L225.482,437.86 C221.499,433.878 215.041,433.878 211.057,437.86 C207.074,441.843 207.074,448.301 211.057,452.285 L218.521,459.749 C119.056,451.018 40.775,367.279 40.775,265.586 C40.775,259.954 36.209,255.387 30.576,255.387 C24.943,255.387 20.377,259.954 20.377,265.586 C20.377,377.845 106.732,470.298 216.499,480.048 L211.056,485.491 C207.073,489.474 207.073,495.932 211.056,499.916 C213.048,501.907 215.658,502.903 218.268,502.903 C220.878,502.903 223.489,501.907 225.48,499.916 L249.295,476.101 C253.278,472.117 253.278,465.659 249.295,461.675 Z" id="Shape"></path>
        </g>
    </g>
</svg>
