<!-- Generator: Adobe Illustrator 21.1.0, SVG Export Plug-In  -->
<svg version="1.1"
	 xmlns="http://www.w3.org/2000/svg" xmlns:xlink="http://www.w3.org/1999/xlink" xmlns:a="http://ns.adobe.com/AdobeSVGViewerExtensions/3.0/"
	 x="0px" y="0px" width="228.536px" height="43.387px" viewBox="0 0 228.536 43.387"
	 style="enable-background:new 0 0 228.536 43.387;" xml:space="preserve">
<defs>
</defs>
<g>
	<path d="M30.302,19.915c0,7.13-4.105,14.854-15.124,14.854C7.238,34.769,0,30.34,0,19.915C0,11.273,5.455,4.63,16.258,5.224
		C27.763,5.872,30.302,14.784,30.302,19.915z M9.776,14.489c-1.026,1.581-1.404,3.478-1.404,5.375c0,4.374,2.161,8.335,6.806,8.335
		c4.483,0,6.698-3.645,6.698-7.966c0-3.057-0.756-5.428-2.323-6.904c-1.728-1.581-3.673-1.634-4.861-1.528
		C12.315,11.96,10.911,12.75,9.776,14.489z"/>
	<path d="M104.028,8.411c0.81-0.864,1.35-1.512,2.809-2.215c1.296-0.54,3.133-0.972,5.131-0.972c1.674,0,3.565,0.27,5.023,1.08
		c2.971,1.566,3.727,4.105,3.727,8.48v19.283h-8.264v-15.88c0-2.539-0.054-3.457-0.378-4.213c-0.648-1.512-2.107-2.16-3.727-2.16
		c-4.375,0-4.375,3.511-4.375,7.022v15.232h-8.318V5.926h8.372V8.411z"/>
	<path d="M91.706,26.784c-0.762,1.605-3.215,7.985-14.044,7.985c-8.372,0-14.26-5.122-14.26-14.359
		c0-6.806,3.349-15.186,14.476-15.186c1.674,0,6.536-0.208,10.155,3.681c3.673,3.943,3.889,9.452,3.997,12.639H71.883
		c-0.054,3.511,1.944,7.022,6.428,7.022c4.537,0,6.103-2.971,7.13-4.969L91.706,26.784z M83.442,16.36
		c-0.162-1.188-0.378-2.755-1.566-3.997c-1.026-1.026-2.593-1.566-4.051-1.566c-1.998,0-3.403,0.972-4.213,1.836
		c-1.134,1.242-1.404,2.539-1.674,3.727H83.442z"/>
	<path d="M207.362,11.768h5.509V5.926h-5.455V0h-8.264v5.926h-1.311l-3.783,5.842h5.094v13.387c0,2.701,0.054,4.699,1.188,6.374
		c1.782,2.593,4.915,2.755,7.778,2.755c1.512,0,2.593-0.162,4.375-0.432v-6.482l-2.971,0.108c-2.215,0-2.215-1.458-2.161-3.187
		V11.768z"/>
	<path d="M124.858,0h8.264v5.926h8.589l-3.783,5.842h-4.86v12.523c-0.054,1.728-0.054,3.187,2.161,3.187l2.971-0.108v6.482
		c-1.782,0.27-2.863,0.432-4.375,0.432c-2.863,0-5.996-0.162-7.778-2.755c-1.134-1.674-1.188-3.673-1.188-6.374V0z"/>
	<g>
		<path d="M220.528,11.769h-1.021V6.788h-1.883V5.926h4.752v0.862h-1.848V11.769z M228.536,11.769h-1.003l0.035-3.608l0.053-1.197
			l-0.282,0.986l-1.197,3.819h-0.915l-1.179-3.819l-0.299-0.968l0.07,1.18l0.035,3.608h-0.986V5.926h1.39l1.461,4.611l1.425-4.611
			h1.391V11.769z"/>
	</g>
	<path d="M167.748,26.809l-1.582,2.444c-1.481,2.173-4.269,5.516-12.253,5.516c-8.372,0-13.997-5.122-13.997-14.359
		c0-6.806,3.349-15.186,14.476-15.186c1.674,0,6.536-0.208,10.155,3.681c3.673,3.943,3.889,9.452,3.997,12.639h-20.147
		c-0.054,3.511,1.681,7.022,6.164,7.022c4.537,0,5.84-2.971,6.867-4.969L167.748,26.809z M159.955,16.36
		c-0.162-1.188-0.378-2.755-1.566-3.997c-1.026-1.026-2.593-1.566-4.051-1.566c-1.998,0-3.403,0.972-4.213,1.836
		c-1.134,1.242-1.404,2.539-1.674,3.727H159.955z"/>
	<polygon points="196.062,34.071 185.729,19.257 194.346,5.926 184.888,5.926 180.82,12.219 176.43,5.926 166.972,5.926 
		176.271,19.257 166.695,34.071 176.153,34.071 181.18,26.295 186.604,34.071 	"/>
	<path d="M41.732,8.411c0.795-1.208,3.346-3.187,7.398-3.187c6.914,0,11.777,5.239,11.777,14.638
		c0,5.779-2.105,14.908-12.125,14.908c-3.603,0-6.397-2.004-7.104-3.187v11.804H33.36V5.926h8.372V8.411z M47.349,11.718
		c-1.512,0-3.079,0.603-4.267,2.111c-1.188,1.458-1.728,3.72-1.728,6.183c0,3.318,0.973,5.328,1.998,6.485
		c0.959,1.081,2.377,1.703,3.727,1.703c4.051,0,5.833-4.266,5.833-8.388c0-3.469-1.026-7.138-4.429-7.943
		C48.106,11.768,47.728,11.718,47.349,11.718z"/>
</g>
</svg>