<?xml version="1.0" encoding="utf-8"?>
<!-- Generator: Adobe Illustrator 16.0.0, SVG Export Plug-In . SVG Version: 6.00 Build 0)  -->
<!DOCTYPE svg PUBLIC "-//W3C//DTD SVG 1.1//EN" "http://www.w3.org/Graphics/SVG/1.1/DTD/svg11.dtd">
<svg version="1.1" id="Layer_1" xmlns:sketch="http://www.bohemiancoding.com/sketch/ns"
	 xmlns="http://www.w3.org/2000/svg" xmlns:xlink="http://www.w3.org/1999/xlink" x="0px" y="0px" width="32px" height="32px"
	 viewBox="0 0 32 32" enable-background="new 0 0 32 32" xml:space="preserve">
<title></title>
<desc></desc>
<g id="Page-1">
	<g id="icon-46-two-fingers-tap">
		<path id="two-fingers-tap" fill="#c2c32d" d="M10.5,13C8.015,13,6,15.013,6,17.496V31h9V17.496C15,15.013,12.98,13,10.5,13
			L10.5,13z M10.5,14C8.567,14,7,15.563,7,17.492V30h7V17.492C14,15.563,12.429,14,10.5,14L10.5,14z M10.5,15
			C9.119,15,8,16.128,8,17.51V21h5v-3.49C13,16.124,11.89,15,10.5,15L10.5,15z M10.5,16C9.671,16,9,16.679,9,17.501V20h3v-2.499
			C12,16.672,11.334,16,10.5,16L10.5,16z M8,24v1h5v-1H8L8,24z M8,26v1h5v-1H8L8,26z M21.5,10c-2.485,0-4.5,2.014-4.5,4.505V31h9
			V14.505C26,12.017,23.98,10,21.5,10L21.5,10z M21.5,11c-1.934,0-3.5,1.571-3.5,3.507V30h7V14.507C25,12.57,23.43,11,21.5,11
			L21.5,11z M21.5,12c-1.381,0-2.5,1.128-2.5,2.51V18h5v-3.49C24,13.124,22.891,12,21.5,12L21.5,12z M21.5,13
			c-0.828,0-1.5,0.679-1.5,1.501V17h3v-2.499C23,13.672,22.334,13,21.5,13L21.5,13z M19,21v1h5v-1H19L19,21z M19,23v1h5v-1H19L19,23
			z M27,19.6c1.241-1.339,2-3.13,2-5.1c0-4.142-3.357-7.5-7.5-7.5c-2.996,0-5.582,1.757-6.783,4.297
			C13.515,10.479,12.063,10,10.5,10C6.358,10,3,13.358,3,17.5c0,1.969,0.759,3.761,2,5.1v1.381c-1.835-1.559-3-3.884-3-6.48
			C2,12.806,5.806,9,10.5,9c1.382,0,2.688,0.33,3.841,0.916C15.853,7.561,18.494,6,21.5,6c4.694,0,8.5,3.806,8.5,8.5
			c0,2.597-1.164,4.922-3,6.48V19.6L27,19.6L27,19.6z"/>
	</g>
</g>
</svg>
