<?xml version="1.0" encoding="utf-8"?>
<!-- Generator: Adobe Illustrator 16.0.0, SVG Export Plug-In . SVG Version: 6.00 Build 0)  -->
<!DOCTYPE svg PUBLIC "-//W3C//DTD SVG 1.1//EN" "http://www.w3.org/Graphics/SVG/1.1/DTD/svg11.dtd">
<svg version="1.1" id="Layer_1" xmlns="http://www.w3.org/2000/svg" xmlns:xlink="http://www.w3.org/1999/xlink" x="0px" y="0px"
	 width="612px" height="402px" viewBox="0 115.5 612 402" enable-background="new 0 115.5 612 402" xml:space="preserve">
<path fill="#c2c32d" d="M85.601,405.125h91.567c-3.201,5.942-5.912,12.778-8.079,20.851l-0.288-0.062c0,0-5.159,26.562-5.227,28.868
	c-0.459,15.099,5.049,29.346,15.496,40.129c10.453,10.771,24.535,16.702,39.651,16.702h174.573c15.122,0,29.192-5.937,39.603-16.702
	c10.422-10.789,15.875-25.036,15.367-40.146c-0.03-0.851-0.386-8.69-4.431-25.27l-2.111-8.679c0,0-4.382-11.053-6.886-15.686h91.567
	c15.123,0,29.199-5.937,39.615-16.708c10.41-10.777,15.869-25.037,15.355-40.159c-0.024-0.838-0.386-8.672-4.432-25.257
	l-0.049,0.012c-9.884-41.041-32.142-52.191-65.215-68.605l-4.614-2.362c8.164-12.632,12.956-27.638,12.956-43.764
	c0-44.609-36.298-80.9-80.906-80.9c-44.615,0-80.906,36.292-80.906,80.9c0,44.608,36.291,80.906,80.906,80.906
	c21.909,0,41.781-8.794,56.365-22.987l8.262,4.217c32.871,16.304,49.358,24.492,56.837,61.322l0.049-0.006
	c2.595,11.622,2.889,17.118,2.889,17.136c0.354,10.233-3.323,19.859-10.343,27.124c-7.014,7.271-16.519,11.273-26.763,11.273
	H421.331c-11.162-10.679-25.483-17.791-42.754-26.359l-4.614-2.369c8.164-12.625,12.956-27.638,12.956-43.764
	c0-44.608-36.298-80.9-80.906-80.9c-44.609,0-80.907,36.292-80.907,80.9c0,16.133,4.798,31.126,12.962,43.764l-4.621,2.369
	c-17.265,8.562-31.585,15.68-42.748,26.359H85.601c-10.239,0-19.743-3.997-26.763-11.273c-7.02-7.265-10.698-16.891-10.343-27.063
	c0-0.073,0.288-5.557,2.888-17.197h0.037c7.479-36.831,23.972-45.013,56.842-61.323l8.256-4.216
	c14.584,14.192,34.456,22.986,56.359,22.986c44.615,0,80.912-36.298,80.912-80.906c0-44.609-36.297-80.9-80.912-80.9
	c-44.603,0-80.9,36.292-80.9,80.9c0,16.132,4.798,31.132,12.962,43.764l-4.621,2.362c-33.066,16.414-55.331,27.564-65.208,68.605
	L35.055,323c-4.027,16.585-4.4,24.419-4.424,25.264c-0.514,15.116,4.938,29.37,15.355,40.153
	C56.402,399.201,70.478,405.125,85.601,405.125z M439.116,271.317c-34.768,0-63.036-28.274-63.036-63.036
	c0-34.755,28.269-63.03,63.036-63.03c34.755,0,63.036,28.274,63.036,63.03C502.152,243.043,473.871,271.317,439.116,271.317z
	 M306,251.746c34.762,0,63.036,28.274,63.036,63.03s-28.274,63.03-63.036,63.03s-63.036-28.274-63.036-63.03
	S271.238,251.746,306,251.746z M241.373,376.912l8.256-4.217c14.59,14.192,34.456,22.993,56.371,22.993
	c21.916,0,41.781-8.801,56.371-22.993l8.25,4.217c32.87,16.304,49.37,24.493,56.849,61.323h0.049
	c2.595,11.609,2.889,17.105,2.889,17.136c0.349,10.227-3.329,19.859-10.343,27.124c-7.025,7.265-16.53,11.267-26.763,11.267H218.717
	c-10.239,0-19.762-4.002-26.824-11.279c-7.05-7.271-10.771-16.922-10.478-26.866c0.012-0.135,0.306-3.488,3.121-17.369l0.013-0.061
	C192.027,401.397,208.521,393.209,241.373,376.912z M172.878,145.251c34.768,0,63.042,28.274,63.042,63.03
	c0,34.762-28.274,63.036-63.042,63.036c-34.75,0-63.03-28.274-63.03-63.036C109.848,173.526,138.128,145.251,172.878,145.251z"/>
<text transform="matrix(1 0 0 1 -4.882813e-004 717.2998)" font-family="'Arial-BoldMT'" font-size="30.6">Created by To Uyen</text>
<text transform="matrix(1 0 0 1 -4.882813e-004 747.8975)" font-family="'Arial-BoldMT'" font-size="30.6">from the Noun Project</text>
</svg>
