<?xml version="1.0" encoding="utf-8"?>
<!-- Generator: Adobe Illustrator 16.0.0, SVG Export Plug-In . SVG Version: 6.00 Build 0)  -->
<!DOCTYPE svg PUBLIC "-//W3C//DTD SVG 1.1//EN" "http://www.w3.org/Graphics/SVG/1.1/DTD/svg11.dtd">
<svg version="1.1" id="Layer_1" xmlns="http://www.w3.org/2000/svg" xmlns:xlink="http://www.w3.org/1999/xlink" x="0px" y="0px"
	 width="612px" height="635.5px" viewBox="0 0 612 635.5" enable-background="new 0 0 612 635.5" xml:space="preserve">
<g>
	<path fill="#c2c32d" d="M459.225,320.061c-3.399,0-6.761,0.149-10.086,0.373l-11.375,0.747l4.688-10.403
		c5.006-11.076,9.376-22.599,12.979-34.253c8.35-26.951,13.038-55.731,13.953-85.521c0.71-24.411-3.399-48.148-12.215-70.598
		c-8.46-21.479-20.844-40.734-36.793-57.245c-30.911-31.9-71.458-49.549-114.19-49.662c-43.105,0.112-83.653,17.761-114.563,49.662
		c-15.95,16.51-28.333,35.766-36.793,57.245c-8.815,22.449-12.924,46.188-12.215,70.598c0.916,29.79,5.604,58.57,13.952,85.521
		c6.91,22.375,16.398,43.685,28.183,63.295l2.652,4.352c3.735,5.958,7.695,11.804,11.804,17.369
		c10.982,19.592,13.858,35.766,8.573,46.299c-3.698,7.321-18.248,22.823-74.072,44.301c-15.745,6.051-41.929,15.277-77.303,24.858
		l-2.428,0.71c-32.199,10.777-53.826,40.921-53.826,74.987V625.5h459.074c84.157,0,152.627-68.506,152.627-152.701
		C611.851,388.585,543.382,320.061,459.225,320.061z M21.908,603.723v-51.025c0-24.504,15.52-46.3,38.605-54.219
		c37.765-10.253,64.733-19.778,81.001-26.035c20.563-7.899,37.821-15.874,51.212-23.663c17.893-10.439,29.173-20.619,34.478-31.135
		c8.909-17.704,5.734-40.883-9.133-67.067c-4.37-6.014-7.919-11.15-11.243-16.379l-1.027-1.644
		c-25.905-41.444-39.837-89.293-41.407-142.205c-0.654-21.422,2.951-42.265,10.684-61.951c7.414-18.826,18.229-35.673,32.161-50.054
		c26.782-27.679,61.784-42.957,98.594-43.068c37.148,0.112,72.148,15.39,98.931,43.068c13.933,14.381,24.747,31.228,32.161,50.054
		c7.732,19.686,11.337,40.528,10.684,61.951c-1.494,50.315-14.213,96.148-37.802,136.229l-1.232,2.111l-2.278,0.822
		c-59.655,22.075-99.698,79.656-99.698,143.287c0,46.318,20.656,89.592,56.703,118.747l15.035,12.178L21.908,603.723L21.908,603.723
		z M551.749,565.361c-24.71,24.747-57.562,38.362-92.524,38.362s-67.834-13.615-92.563-38.362
		c-24.71-24.709-38.324-57.6-38.324-92.563c0-35,13.616-67.871,38.324-92.6c24.729-24.729,57.6-38.324,92.563-38.324
		s67.814,13.597,92.524,38.324c24.729,24.729,38.343,57.6,38.343,92.6C590.092,507.762,576.477,540.652,551.749,565.361z"/>
	<path fill="#c2c32d" d="M513.367,466.317h-42.526v-42.563c0-6.014-4.894-10.888-10.888-10.888c-5.995,0-10.889,4.874-10.889,10.888
		v42.563h-42.526c-5.996,0-10.889,4.895-10.889,10.889c0,6.014,4.894,10.907,10.889,10.907h42.526v42.546
		c0,6.014,4.894,10.888,10.889,10.888c5.994,0,10.888-4.874,10.888-10.888v-42.546h42.526c5.996,0,10.889-4.894,10.889-10.907
		C524.257,471.212,519.363,466.317,513.367,466.317z"/>
</g>
<text transform="matrix(1 0 0 1 0 643.4297)" font-family="'Arial-BoldMT'" font-size="5.9766">Created by lastspark</text>
<text transform="matrix(1 0 0 1 0 649.4063)" font-family="'Arial-BoldMT'" font-size="5.9766">from the Noun Project</text>
</svg>
